/* XPM */
static char *result[] = {
/* columns rows colors chars-per-pixel */
"64 64 168 2 ",
"   c #010101",
".  c #070903",
"X  c #0A0C04",
"o  c #070708",
"O  c #070808",
"+  c #0A0A0C",
"@  c #120E06",
"#  c #120D0A",
"$  c #0D1106",
"%  c #111607",
"&  c #17110D",
"*  c #141A09",
"=  c #1F190A",
"-  c #0C0D10",
";  c #0F1014",
":  c #1D1611",
">  c #141418",
",  c #151619",
"<  c #191A1F",
"1  c #251D0C",
"2  c #261C15",
"3  c #1B230B",
"4  c #1F290D",
"5  c #2B230F",
"6  c #222D0E",
"7  c #26320F",
"8  c #2F2610",
"9  c #2F231B",
"0  c #312710",
"q  c #33271D",
"w  c #36291F",
"e  c #263110",
"r  c #293511",
"t  c #2E3B14",
"y  c #333A19",
"u  c #1B1C21",
"i  c #1F2023",
"p  c #22232A",
"a  c #25262A",
"s  c #2C2D33",
"d  c #2F323C",
"f  c #33353B",
"g  c #463818",
"h  c #473629",
"j  c #523D2E",
"k  c #344416",
"l  c #3A4E16",
"z  c #374718",
"x  c #3A4C19",
"c  c #3E521A",
"v  c #53421C",
"b  c #41551C",
"n  c #485E1E",
"m  c #455820",
"M  c #4A5F21",
"N  c #5B5130",
"B  c #655122",
"V  c #725C27",
"C  c #614937",
"Z  c #634A38",
"A  c #4E6522",
"S  c #4F6821",
"D  c #506725",
"F  c #536D23",
"G  c #567224",
"H  c #597525",
"J  c #5B7923",
"K  c #5B7629",
"L  c #5E7929",
"P  c #617D2B",
"I  c #363944",
"U  c #393B43",
"Y  c #3F4350",
"T  c #44464D",
"R  c #444753",
"E  c #4B4D54",
"W  c #4B4F5F",
"Q  c #4E5057",
"!  c #55575F",
"~  c #725641",
"^  c #7B5C46",
"/  c #515566",
"(  c #585B67",
")  c #55596B",
"_  c #595E71",
"`  c #5E6377",
"'  c #62646E",
"]  c #666A79",
"[  c #6B6E79",
"{  c #6E717C",
"}  c #70737E",
"|  c #8F7330",
" . c #987A33",
".. c #88664D",
"X. c #807044",
"o. c #936E53",
"O. c #957055",
"+. c #997357",
"@. c #A27A5C",
"#. c #AA7F61",
"$. c #668726",
"%. c #65842C",
"&. c #69872E",
"*. c #6B8C2D",
"=. c #6B9027",
"-. c #6E912B",
";. c #71942D",
":. c #769E2B",
">. c #6D8C32",
",. c #6F9130",
"<. c #729433",
"1. c #769B32",
"2. c #799D35",
"3. c #79A12E",
"4. c #7DA532",
"5. c #7DA13A",
"6. c #B9953E",
"7. c #80A737",
"8. c #81A936",
"9. c #81A63B",
"0. c #85AD3A",
"q. c #88AB3D",
"w. c #89B13E",
"e. c #BF9940",
"r. c #A98F5C",
"t. c #86AB40",
"y. c #97A24A",
"u. c #8CB441",
"i. c #90B845",
"p. c #AD8162",
"a. c #B18565",
"s. c #B58867",
"d. c #B78968",
"f. c #B88A69",
"g. c #C39C42",
"h. c #C7A043",
"j. c #D1A746",
"k. c #D8AE49",
"l. c #E4B74D",
"z. c #EABB4F",
"x. c #EEBF50",
"c. c #F2C251",
"v. c #676C83",
"b. c #6C7188",
"n. c #767985",
"m. c #71778F",
"M. c #737992",
"N. c #787E97",
"B. c #7D818D",
"V. c #7D839D",
"C. c #7F85A0",
"Z. c #818491",
"A. c #858895",
"S. c #8A8D9B",
"D. c #8D919F",
"F. c #838AA6",
"G. c #878EAB",
"H. c #888FAC",
"J. c #8990AE",
"K. c #9094A3",
"L. c #9A9EAD",
"P. c #9CA1B0",
"I. c #A6AABB",
"U. c #ADB1C2",
"Y. c #B1B6C8",
"T. c #B5BACC",
"R. c #B8BDCF",
"E. c #B9BED0",
/* pixels */
"8.8.8.8.8.4.8.0.4.4.8.0.0.0.0.0.8.8.8.8.8.8.0.0.4.8.8.8.0.0.0.0.8.8.8.8.8.8.8.0.4.4.4.0.0.0.0.0.0.8.8.8.8.8.8.0.:.6 X n k c 4.0.",
"4.4.0.0.w.w.w.w.w.w.w.0.8.8.8.8.4.8.8.0.w.w.w.w.w.w.w.0.8.8.8.8.4.8.8.0.w.w.w.w.w.w.w.w.8.4.4.0.4.4.0.0.0.u.w.w.2.*   o   X >.8.",
"0.0.0.u.u.i.i.i.w.u.u.0.4.3.8.8.0.0.w.w.w.i.i.w.w.w.w.w.4.4.8.8.0.0.w.w.w.i.w.i.w.i.u.0.4.4.4.8.0.0.0.w.u.i.i.i.u.A       t 1.8.",
"0.0.8.8.8.0.0.0.4.0.0.8.4.8.0.0.0.0.8.8.0.0.0.8.8.0.0.8.4.8.0.0.0.0.8.8.0.0.0.0.4.0.0.4.4.8.0.0.0.0.4.0.8.0.0.8.;.r     t 1.0.0.",
"0.8.8.4.8.8.4.3.3.8.8.8.0.w.w.w.0.8.8.8.8.8.8.3.4.8.8.8.0.w.w.w.0.0.8.8.0.0.4.4.3.8.8.0.0.w.w.w.0.0.8.4.0.8.4.-.7     t 1.w.w.w.",
"8.0.w.w.u.u.0.8.0.0.0.w.w.w.w.w.8.8.0.w.w.w.0.8.0.0.0.w.w.w.w.w.8.8.0.w.w.w.0.8.0.0.0.w.w.w.w.w.4.0.w.w.w.w.1.7     t 5.w.w.w.w.",
"3.4.8.w.w.w.0.8.0.0.8.0.0.4.0.0.4.4.8.w.w.w.0.8.0.4.8.0.0.4.8.0.3.4.8.w.w.w.0.8.0.8.8.0.0.8.8.0.3.4.0.0.w.2.r     t :.0.0.4.0.0.",
"0.0.0.0.0.w.0.w.3.:.3.3.3.:.3.0.8.0.0.w.0.w.0.w.3.3.3.3.3.3.3.8.8.0.0.0.0.w.0.w.3.:.3.3.3.:.3.0.0.0.0.0.1.r     r =.3.3.3.:.3.0.",
"0.w.w.0.0.w.0.0.0.8.0.w.0.i.u.0.0.w.w.0.0.w.w.0.0.8.0.w.w.w.w.8.0.w.w.0.0.w.w.0.0.8.0.w.8.t.9.5.0.u.w.1.r     t 4.8.0.w.0.u.u.0.",
"4.8.0.4.4.8.4.3.4.0.i.i.8.3.8.8.4.0.8.8.4.8.4.3.4.w.i.w.8.4.8.0.8.8.8.4.4.8.4.3.4.w.i.-.k * % r G 4.<.7     t -.4.0.i.u.8.4.8.8.",
"8.0.0.0.0.0.0.4.w.w.w.w.0.8.4.0.0.0.0.0.0.w.0.4.w.w.w.w.w.8.4.0.8.0.0.0.0.0.8.4.w.w.L %         . b r     t 1.4.w.u.w.0.w.8.4.0.",
"w.w.i.w.i.w.w.0.w.0.3.3.w.w.4.0.w.w.w.w.w.w.w.0.w.0.3.3.w.w.4.0.w.w.i.w.i.w.w.0.w.H $   o f I ;         k 9.w.0.u.8.:.4.w.0.8.0.",
"w.w.w.w.0.0.3.3.4.3.3.3.4.3.3.w.w.w.w.w.w.8.8.3.4.4.3.3.4.4.4.w.w.w.w.w.0.0.4.3.G $   + ) F.H.v.,     r 4.8.4.3.4.4.:.3.4.4.4.0.",
"w.w.w.w.0.4.4.3.0.0.0.w.0.8.0.w.w.w.w.w.8.8.4.3.4.0.0.0.0.8.4.w.w.w.w.0.8.8.4.F $   + ) G.G.G.J./     A 0.4.4.3.8.0.0.0.0.4.8.w.",
"w.0.0.0.0.0.8.8.w.w.w.w.w.w.w.0.w.0.0.0.0.8.8.8.w.w.w.w.w.w.w.0.w.0.0.0.0.8.J $   + ) G.G.G.J.b.u   X P 0.0.8.8.w.w.w.u.w.u.u.0.",
"w.0.8.8.8.8.4.4.4.8.0.0.3.0.w.0.0.0.8.8.8.8.4.4.8.8.0.0.4.0.w.0.w.0.0.8.8.J $   + ) G.G.G.H.b.<   . b 4.8.8.4.4.4.8.0.8.4.8.w.0.",
"8.8.8.8.8.8.8.0.8.8.8.8.0.0.0.0.8.8.8.8.8.8.8.0.4.4.4.0.0.0.0.0.8.8.8.7.G $   o / H.H.H.J.b.<     c 4.8.8.8.8.0.4.4.4.8.0.0.0.0.",
"4.4.0.0.0.w.w.w.w.w.w.0.8.8.8.8.4.8.0.0.0.w.w.w.0.w.w.w.0.4.8.8.4.7.8.L $       Y F.H.J.b.<   . c 4.8.0.0.u.w.w.w.u.w.w.0.8.8.8.",
"0.0.0.w.w.i.i.w.w.w.w.0.4.4.8.8.0.0.0.w.i.w.w.i.w.i.i.0.4.4.4.8.0.0.L $   @ =     Y F.b.<     c 8.0.0.u.u.i.i.i.w.u.u.0.4.4.4.8.",
"w.0.8.8.0.0.0.0.4.0.w.8.4.8.0.8.w.0.8.8.0.0.0.0.4.0.0.4.4.4.0.0.0.K $   X  .e.8   o f u     b 5.0.0.8.8.8.0.0.8.4.8.0.8.4.8.0.0.",
"0.8.8.8.0.0.8.3.3.8.8.8.0.w.w.w.0.8.8.8.0.0.8.3.3.0.4.0.0.9.%.M t $   @  .x.x.g.8         m 0.w.0.8.7.8.8.8.4.4.4.8.0.8.0.w.w.w.",
"8.8.0.w.w.w.0.8.0.0.0.w.w.w.w.w.8.8.0.w.w.w.0.8.0.0.0.w.9.x           B c.c.x.c. ..     m q.u.w.8.8.8.u.u.u.0.8.0.0.0.w.w.w.w.w.",
"3.8.0.w.w.w.0.8.8.8.8.0.0.8.8.0.3.8.0.w.w.w.0.8.0.4.8.5.z     + u -   1 h.c.c.e.8   . b 4.8.8.0.4.4.0.u.w.w.0.8.0.4.8.0.0.4.8.0.",
"8.0.0.0.0.0.w.w.3.:.3.3.3.3.3.0.8.0.0.0.0.0.w.w.3.3.;.k     p v.C.) .   g l.e.5     l :.3.:.3.0.8.0.0.0.0.0.0.w.3.:.3.3.3.:.3.0.",
"0.w.w.0.0.w.w.8.0.8.w.0.0.w.w.0.0.w.w.0.0.w.w.8.0.4.z     p M.H.G.F.I   o B 8   . c 8.w.0.u.u.8.0.w.w.0.0.w.w.0.0.8.0.w.0.u.u.0.",
"8.8.8.4.4.8.4.3.8.0.i.w.4.4.0.0.8.8.8.4.4.8.4.3.1.x     p M.H.H.G.H.N.u         c 9.i.u.8.4.8.0.4.0.8.4.4.8.3.3.4.w.i.i.8.4.4.0.",
"8.w.0.0.w.w.8.4.w.w.w.w.w.8.4.0.8.w.0.0.0.0.0.:.x     p M.H.G.G.G.G.H.` +     l 8.u.u.0.0.8.4.8.8.0.0.0.0.w.0.4.0.w.w.w.0.8.4.0.",
"w.w.w.w.w.w.w.0.w.0.3.4.w.0.8.0.w.w.w.w.u.u.9.z     , m.H.G.G.G.G.G.H.F.s     F u.8.:.4.u.0.8.0.w.w.i.w.i.w.w.0.w.0.3.3.w.w.4.0.",
"w.w.w.w.w.8.4.3.4.4.3.3.4.4.4.0.w.w.w.w.w.4.k       + / G.G.G.H.G.G.H._ -   % $.4.4.:.3.4.4.4.0.w.w.w.w.0.0.4.3.3.4.3.3.4.3.4.w.",
"w.w.w.0.8.8.4.3.8.0.0.w.0.8.8.w.w.w.0.0.4.k     p ,   + / G.G.H.G.G.` +     7 *.7.0.0.0.0.4.7.w.w.w.w.w.0.4.3.3.0.0.0.0.0.8.8.w.",
"w.w.0.0.0.8.8.8.w.w.w.w.w.w.w.w.w.0.0.4.z     s L.A.,   o ) H.H.J.] ;         3 D 2.0.u.w.u.u.0.0.0.0.0.0.0.8.0.w.w.w.u.w.w.w.0.",
"w.0.8.8.8.8.8.4.8.8.0.8.3.8.w.0.w.0.4.l     s L.R.I.f     R H.J.v.>   + ( f       % t A J %.<.&.P A l $.8.8.3.4.4.8.0.0.3.0.w.0.",
"8.8.8.0.8.8.8.8.4.4.4.0.0.0.0.0.8.4.k     s L.E.U.E o   p M.J.b.,   + ] T.U.[ a .       . X X . .     r 4.4.8.0.4.4.4.8.0.0.0.0.",
"4.8.8.0.0.w.w.w.w.u.u.0.8.8.8.8.1.k     s L.E.U.E     p M.J.m.u   o ' Y.T.T.T.I.n.T u -           .   % 1.u.u.t.w.w.w.w.0.8.8.8.",
"0.0.0.w.i.i.i.i.w.u.u.0.4.4.4.4.x     s L.R.U.E     p M.J.M.i     a I.R.T.T.T.T.R.T.I.K.N.{ [ } Z.'     P i.i.u.w.u.u.0.4.4.8.8.",
"0.0.8.4.0.0.0.8.4.0.0.8.4.8.0.,.$   s L.R.U.E     p M.J.N.a         s A.T.T.T.T.T.T.T.T.R.R.R.R.E.L.,   x 0.0.8.4.0.0.8.4.8.0.8.",
"0.8.4.8.8.8.4.4.4.4.8.0.0.w.w.*..   { E.U.E     p M.J.V.s     k 7     + T D.Y.R.T.T.T.T.T.T.T.T.T.Y.f   6 1.4.4.3.8.0.8.0.w.w.w.",
"8.0.0.w.u.w.0.8.0.0.0.w.w.w.w.>..   n.U.E     p M.J.C.d     y 5.1.b $     - U n.P.Y.R.R.R.R.T.R.R.E.(   X <.0.8.0.0.0.w.w.w.w.w.",
"3.4.0.w.w.w.0.8.0.8.8.0.0.4.8.%.O   [ Q o   i M.J.F.I     t 1.0.3.4.&.y X     . > f ! { Z.S.S.S.B.[ U     F 0.8.0.8.8.0.0.4.8.0.",
"0.0.0.0.0.w.0.w.:.:.:.4.3.:.3.L .   u .   p M.J.F.U     X J 3.8.0.0.0.8.%.x *             O + O o         M w.w.3.:.3.3.3.:.3.0.",
"0.w.w.0.0.w.w.0.0.0.0.w.0.u.u.k         p M.J.F.R         t q.8.0.w.w.0.0.w.2.H x 4 % .           X % 6 b 2.0.0.0.0.0.w.0.u.i.8.",
"4.0.0.4.4.8.3.3.4.w.i.u.0.3.&.$         Y G.H.R o   0 g     z 4.4.8.0.4.4.8.4.3.4.9.9.>.H F G G J &.1.3.4.0.3.3.4.0.i.u.8.4.4.0.",
"8.0.0.0.0.0.0.4.0.w.w.w.0.8.l   o C &   o W W o   5 g.k.g   . A 4.0.0.0.0.0.0.4.0.u.u.0.w.8.4.0.8.0.0.0.0.0.0.8.w.w.w.w.w.8.8.0.",
"w.w.u.w.i.w.w.0.w.0.3.3.w.1.%   w a...:   o .     g l.c.g.1   % <.u.u.w.u.u.w.0.u.8.:.4.w.0.8.0.w.u.u.w.i.u.w.0.w.0.3.3.w.0.4.0.",
"w.w.w.w.0.0.3.3.4.4.$.b b r   . ^ d.s.j             V z.c. .X   z u.u.w.0.0.4.3.4.4.3.3.4.4.4.0.w.u.w.w.0.0.3.3.4.3.3.3.4.3.4.w.",
"w.w.w.0.0.8.4.3.8.5.t         9 p.d.@.:     % n 6   .  .c.z.v   X %.0.0.8.8.4.3.4.0.0.0.0.4.8.w.w.w.w.0.0.8.3.3.8.0.0.0.0.4.8.w.",
"w.w.0.0.0.0.0.8.0.x     # & : ^ d.d.~     m ;.8.>.*   5 j.c.6.%   z 0.0.0.0.8.8.u.w.u.u.w.u.u.0.w.0.0.0.0.8.8.8.w.w.w.i.w.w.w.0.",
"0.0.8.8.8.4.4.4.A .   q O.+.@.s.s.p.w   * :.4.4.7.S     V c.z.v   % ,.8.8.4.4.4.4.7.0.8.4.8.w.8.0.0.0.4.8.8.4.4.8.8.0.0.3.0.w.0.",
"0.8.8.0.8.4.0.P $   : o.f.d.d.s.s.#.2   b 7.8.0.4.:.6   1 j.z.|     S 8.8.8.0.0.4.4.8.8.0.0.0.0.8.0.8.8.4.8.0.0.3.4.4.0.0.0.0.0.",
"3.8.8.0.w.w.<.3   X ^ f.s.s.s.s.s.s.X.D 2.w.w.w.w.w.L     v v =     k 0.0.w.w.w.w.w.w.w.8.8.8.8.4.4.8.0.0.w.w.w.w.w.w.0.0.4.8.0.",
"0.0.0.w.u.t.t     Z s.s.s.s.s.s.s.s.y.u.u.i.i.i.u.u.9.*           $ F w.w.i.w.i.w.w.w.0.4.4.4.8.0.0.w.w.u.i.i.u.w.i.u.0.4.3.4.4.",
"0.0.8.0.9.x     h a.s.s.s.s.s.s.s.r.9.8.0.0.0.8.4.0.0.x   . 3 k G -.4.8.0.w.0.8.4.w.0.8.4.8.0.0.0.0.8.8.0.0.0.0.4.0.0.8.4.0.0.0.",
"0.8.8.4.D .   9 @.s.s.s.s.s.s.p.j y -.4.0.4.4.4.4.7.8.1.K *.9.w.0.0.4.4.0.8.4.4.4.8.8.8.0.w.w.w.0.0.8.8.0.4.4.4.4.4.0.0.0.w.w.w.",
"4.0.0.%.$   : o.d.s.s.s.s.s.s.+.#   K u.u.u.0.4.0.0.0.w.w.u.w.w.4.0.w.u.w.w.0.8.0.0.0.w.w.w.w.w.4.8.0.w.u.w.0.4.0.0.0.0.w.w.w.w.",
"3.4.;.3   + ^ d.s.s.s.s.s.s.s.a.N c 1.w.w.w.0.8.0.8.8.0.0.4.8.0.3.4.0.w.w.w.0.8.8.8.0.0.8.8.8.0.4.4.8.w.w.w.0.0.0.8.8.0.0.4.0.0.",
"0.4.t     Z d.s.s.s.s.s.s.s.s.s.y.0.0.0.0.0.w.w.3.:.:.3.3.:.:.0.0.0.0.0.0.w.0.w.3.3.3.3.3.3.3.0.0.0.0.0.0.w.0.w.3.3.3.3.3.:.3.0.",
"0.<.$     j @.s.s.s.s.s.s.d.d.r.0.u.w.0.0.u.w.8.0.0.0.0.0.w.i.4.0.w.w.0.0.u.w.0.0.0.0.w.w.w.w.0.0.w.w.0.0.w.w.8.0.4.0.0.0.i.w.0.",
"4.4.c O     2 ^ a.d.s.d.d.#.C N 3.0.8.4.4.4.4.3.4.0.i.i.0.4.4.0.4.4.8.4.4.4.4.3.4.w.i.w.8.4.8.8.4.0.8.4.4.8.4.3.4.0.i.i.0.3.4.0.",
"8.0.8.%.e     . h o.d.d.d.~   X &.0.0.0.0.0.0.4.w.w.w.w.0.0.4.0.0.0.0.0.0.0.0.4.0.w.w.w.w.8.8.0.8.0.0.0.0.0.8.4.w.w.w.w.0.0.8.0.",
"0.u.u.u.q.D %     & Z #.p.q   3 4.w.w.w.u.u.u.8.w.0.3.3.w.0.0.0.w.w.u.u.i.u.0.0.w.0.3.3.w.0.8.8.w.w.i.w.i.w.w.0.w.0.3.3.w.0.4.0.",
"u.u.u.w.0.0.*.t O     q Z X   c w.w.w.w.0.0.4.3.4.4.3.3.4.3.4.0.w.i.w.w.0.0.4.3.4.4.3.3.4.4.3.w.w.w.w.w.0.0.4.3.3.4.3.3.4.4.4.0.",
"u.0.0.0.0.8.4.:.G 3     .   X >.w.w.w.w.0.8.4.3.4.0.0.0.0.0.0.0.w.w.w.0.0.4.4.3.8.0.0.0.0.8.8.w.w.w.w.w.0.8.4.3.8.0.0.w.0.4.8.w.",
"u.0.0.0.0.8.8.8.w.4.m $     y 0.w.0.0.0.0.0.0.4.w.w.w.w.w.w.w.0.0.0.0.0.0.0.4.0.w.w.w.w.w.w.w.w.w.0.0.0.0.8.8.8.w.w.w.w.w.w.w.w.",
"0.0.8.8.8.4.4.4.8.4.8.%.3 X L 8.0.0.0.8.4.4.4.4.8.8.0.0.3.0.w.0.w.0.4.0.4.4.4.4.8.8.0.0.4.8.w.8.w.0.8.8.8.8.4.4.4.8.0.0.4.8.w.0."
};
