/* XPM */
static char *a89e797304dc44c9a4a04b141f005579zRNuiu6esDL7Oxwg[] = {
/* columns rows colors chars-per-pixel */
"64 64 131 2 ",
"   c None",
".  c #161324",
"X  c #1B1626",
"o  c #1F1827",
"O  c #201727",
"+  c #211827",
"@  c #241A29",
"#  c #2D1E2B",
"$  c #301F2C",
"%  c #2F202C",
"&  c #33212D",
"*  c #3B242E",
"=  c #3D2631",
"-  c #3F2831",
";  c #40272E",
":  c #45292F",
">  c #412730",
",  c #442931",
"<  c #4D2C33",
"1  c #512E33",
"2  c #4F3034",
"3  c #543134",
"4  c #583135",
"5  c #583235",
"6  c #593235",
"7  c #5A3335",
"8  c #5B3335",
"9  c #5C3335",
"0  c #593436",
"q  c #593536",
"w  c #5A3436",
"e  c #5A3537",
"r  c #5A3637",
"t  c #5B3637",
"y  c #5C3536",
"u  c #5D3536",
"i  c #5B3435",
"p  c #5E3838",
"a  c #603535",
"s  c #623636",
"d  c #643736",
"f  c #623636",
"g  c #623836",
"h  c #643937",
"j  c #673836",
"k  c #663936",
"l  c #673936",
"z  c #673837",
"x  c #653836",
"c  c #683936",
"v  c #683937",
"b  c #693937",
"n  c #6A3A37",
"m  c #6A3A37",
"M  c #633938",
"N  c #673A38",
"B  c #673B39",
"V  c #643A39",
"C  c #6A3A38",
"Z  c #6C3B38",
"A  c #6D3B38",
"S  c #693D3A",
"D  c #6F3C38",
"F  c #6F3C39",
"G  c #6C3E3A",
"H  c #6F3F3A",
"J  c #6C3C39",
"K  c #703C38",
"L  c #703D38",
"P  c #713D38",
"I  c #713D39",
"U  c #723D39",
"Y  c #713E39",
"T  c #723E39",
"R  c #733E39",
"E  c #713F3A",
"W  c #743E39",
"Q  c #743F39",
"!  c #753F39",
"~  c #743F3A",
"^  c #763F3A",
"/  c #773F3A",
"(  c #733E39",
")  c #6E403B",
"_  c #6E403B",
"`  c #70413B",
"'  c #73403A",
"]  c #72423B",
"[  c #77403A",
"{  c #77413A",
"}  c #76413B",
"|  c #77413B",
" . c #76413A",
".. c #79413A",
"X. c #7A423B",
"o. c #7C433B",
"O. c #78443C",
"+. c #7A443C",
"@. c #7A453D",
"#. c #7A463D",
"$. c #7B463D",
"%. c #7B473D",
"&. c #7D453C",
"*. c #7D463C",
"=. c #7E463D",
"-. c #7F463D",
";. c #7D473E",
":. c #7B443C",
">. c #7E483E",
",. c #7F493E",
"<. c #7E483E",
"1. c #80473D",
"2. c #81483D",
"3. c #81483E",
"4. c #80493E",
"5. c #80493F",
"6. c #82483E",
"7. c #82493E",
"8. c #814A3F",
"9. c #834A3E",
"0. c #834A3F",
"q. c #84493E",
"w. c #874C3F",
"e. c #834A3E",
"r. c #874D40",
"t. c #864C40",
"y. c #884D40",
"u. c #884E40",
"i. c #8A4F41",
"p. c #894E40",
"a. c #8C5041",
/* pixels */
"                                                                                                                                ",
"                                                                                                                                ",
". . . o # $ $ @ X @ = - = - = = - = = & $ # $ % % % # $ # X . . + & > - = = = # # $ $ $ @ . . X : T q.y.a.t.a.>.V < < < < 1     ",
"& & # # # @ @ + X @ = - = = = - = > = & % % $ % # # # # # $ & # # # & - = = = & $ # # @ # & $ # * 3 M H _ _ _ _ 3 > , > = *     ",
"c a 1 * @ X X X . @ = - > = - = - = = = # & $ # $ % # + @ 1 s 1 * @ + = - = * % $ $ @ + * u 5 < & @ & < < , , , * & & $ @ +     ",
"..A 5 , $ @ . . . @ = - - = - = = = = & # # $ $ % @ @ $ < A A 8 , & # # & = = & @ @ # * 8 U z 1 * $ @ # & - = * & # @ @ & *     ",
"! c 5 < < * + . X @ * = - > = = - > = * % # $ $ # @ # 1 A ! A 8 < < = @ @ * & & @ + * d P T s < < < # @ % * = = & # @ # 1 F     ",
"&.T 5 < 1 , * @ X @ = , = = = - = = = & $ $ $ @ @ & < s / o.! 8 < 1 , & % # @ + # ; 8 P &...C 1 1 < * $ # # & - # @ & < c /     ",
"y.O.9 < < < < * @ @ = = = = = = = = = & # # # + # 1 A T [ 3.@.p < < 1 < * @ X X * c ! ^ -.t.S 1 < < < , $ + & & @ # 3 P [ P     ",
"i.;.9 < 1 1 < , = % # & = = = > - - = = & @ @ & 1 c ^ ^ } t.@.9 < < 1 1 * + @ : d &.0.3.t.t.H 1 < 1 1 < > $ # # * 1 c o.*.2.    ",
"t.` 1 < < < < < , = o @ = = = = - - = & # + # 1 P ! T T [ 0.-.e < < < 1 * + $ 9 [ -.3.>.t.@.S < , < < < < , # @ < c A P @.0.    ",
"e 3 > = $ = = = = & @ @ @ % & & & & & @ + * 1 j ! P T T [ 0.@.e < < 1 < * + # < q q q q e e < = * = * = = = # @ & ; < 3 q u     ",
"= & & # $ # & % $ $ # + X o # # & # # @ # 3 T [ ^ ! ^ [ O.t.@.p < < < 1 = + + = > - = = - = = # # $ # $ # $ $ # o o # = - -     ",
"= = & # # # # # $ @ + X . . o @ % @ + * 8 c ..-.q.0.2.0.t.r.@.p < < 1 1 = + + = - = = = = = & # # $ # # % % $ # o . o @ & -     ",
"= = & % $ $ $ $ # + X X @ @ @ @ @ + @ < c c S ] #.#.:.:.#.#.G 3 < < , < $ + + $ = = = = = - & # # $ $ $ % # # # o . . o % &     ",
"= = & # # $ $ @ o X . * 5 1 = # o # & , < < < 2 2 2 2 3 2 3 < = & & = $ $ O X + # = - = = = = # % # $ # # % # # @ . . . o +     ",
"& & % # $ # # o X X $ 1 A c 1 & @ # & * = - = = = = = = = = & & # $ $ # @ X . . o % * = = = & $ % # $ $ $ # $ # X X @ # @ +     ",
"o @ # % $ # o . . $ 6 A P d 1 < ; $ + $ = > = = = - = = = = = & # # # $ @ X . . . X # = > = = $ # % % % $ # $ # X + < 8 : &     ",
"+ @ @ @ # + . o $ 1 U / P a 1 1 1 & # # % = = - = = - = = - = & $ $ # @ $ $ & & % # # % = = & $ % $ % # $ # # @ $ * d A < -     ",
"= % @ X X . X $ 8 F T ^ P d 1 < < < : # + & = = - = = = = = = % & # # O $ 9 c d 9 , & @ @ = = $ # # $ $ $ # + @ < c P A < =     ",
"- * # o . + $ 1 F ~ ^ / | B 3 < < 1 < = # # % = - = = - - - * & # @ # & < A ..^ C 5 = # # # $ $ $ $ $ $ # @ $ ; s ^ @.H 3 =     ",
"- = = # o $ 9 T U W ^ O.t.S 1 , < < < < > # o # = - - = - ; * & @ o $ 8 F T ^ P z 1 < < & + @ # # % # # @ @ < z T ^ 0.#.3 =     ",
"= - > & + & c / W U U o.t.J 3 < 1 < < 1 < = # # % * - > - - * @ @ * 1 c ^ ^ / O.H 1 < < > $ @ @ @ @ @ @ # , a ^ T [ >.@.3 =     ",
"= - > & X & d ..~ E ~ ;.t.J 3 < < < 1 < < < > # o % = = = * * + & i P P T ^ o.t.` 1 < < < < & o X X . @ < z ^ W T [ t.#.3 =     ",
"= = - & X $ z o.1.-.-.t.y.E 3 < 1 < 1 < < 1 < # X + # @ # + $ * 1 D / ! P ! ..w.` 5 < < 1 < > & + X # < s ^ ^ T T [ 0.@.3 =     ",
"- = = & o $ s O.-.t.-.t.;.S < < < < < < < < , @ X X X X X X & i P P ! P ! P :.q._ 5 < < < < < < # + : A ^ T T ~ ] [ 0.@.3 =     ",
"= = - & X # < e e p e p p < = = = = = * = = = @ X . . . + ; 6 A ! P P P P P :.w.` 5 < < 1 1 1 < $ + < T ..^ #.;.0.0.w.@.3 =     ",
"= = = % o + = = - > = = = & # % # $ # # # # # + . . . . @ 6 P / ! ......[ [ &.9.` 5 < < < < 1 < $ + ; c F H #.;.-.>.0.] 2 =     ",
"& & & # o @ = = = = = = = & % # # # # # % # # o . . . . @ 9 / / [ #.9.8.0.0.w.w.[ 5 < < < < 1 < & X & 3 3 2 3 q 0 0 0 2 - &     ",
"% & % @ X o $ & = = - = - & % % # $ $ $ $ $ # o X + @ + # 1 j c _ #.#.;.#.#.#.#.S < , < < < < : # X # & = - - = = = = = & %     ",
"% % $ @ X X o # = - = - - = % % $ $ # # $ % # X X ; 1 < * $ $ : 2 3 2 3 3 2 0 3 , = & * & * * & @ X . @ & = - = = = = = & %     ",
"& # # # # @ @ # & * = - = & % % $ # $ $ % # # @ * 9 P a : $ # $ & = = = = = = = = $ # # # # $ $ @ . . X @ & = = - = = = & #     ",
"* & + # 1 4 , $ @ # = > = & % % # $ # $ # + @ : s F J 9 < , & # @ * = = = = = = = % # # % # $ # + X . . X @ & > - = = = % #     ",
"& $ # < F F 1 = @ # % & = = $ % $ $ $ # @ # & 9 ~ ;.~ 9 1 1 , $ @ % & = = - = = & & # % # $ # @ # $ # @ @ @ $ & = = = * & %     ",
"X $ 1 A U j 4 < , & @ # = & $ % $ $ $ + @ : d A ~ 3.;.9 < < < , = @ @ = - = = - & & # $ & % + o ; 9 3 < , ; # + & = - = & %     ",
"& : c / O.F 4 < 2 > # # $ $ $ $ # # @ # ; 9 ! ^ W t.;.s < < 1 1 , & # # & = , = * & $ $ # + # * 8 U d < 1 < & # # & = = # @     ",
"c A P ..t.E 4 < < < , & + @ # $ # + + : d T ^ T ^ 3.-.s < < < < < < = @ @ * - = & & $ # @ + * d P D s < < < < > # + & * @ X     ",
"1.1.&.0.i.] 3 < 1 1 1 , $ # @ @ @ X X < T ^ P T ^ 3.;.s < < 1 < < 1 , & # # # # # @ @ @ # * 8 P :...g 1 < < 1 , @ X @ & * *     ",
"9.9.q.q.t.E 3 < < < < < , & X X X . + < U ^ T T [ 0.;.V < < < < < < < < = @ X X X X . X ; d T ^ -.0.B 1 < 1 1 < # X . @ 1 S     ",
"V V B B B 4 , = > = > > > $ @ X . . X < ^ -.-.-.0.y.>.p 1 < 1 < < 1 1 1 , & # . . . @ ; 8 ! ^ T -.0.S < < < 1 , # . . @ < s     ",
", , - , - = % % $ $ $ $ $ $ # @ X . + < A &.0.0.t.t.#.p < < < < < < < < < < & X X + ; d T T T ^ -.>.S 1 < < 1 : # . . + & ;     ",
"= = = = = = % # % # % % % % % # @ X X * 3 u p p p M 3 , = = = = = = = * = = $ + @ , 9 W ^ T T T -.t.S 1 < < 1 : # . . X + @     ",
"* * = = = = % % % # # % % % # $ # + X % - - ; > = = = & # # % # $ $ $ $ % $ @ X & j W W ^ ^ ^ ` >.0.C < < < < < # . . X X +     ",
"o % * = = = % % % $ $ % # $ $ $ # + X # = - = = = = = & # # # % # $ # # % % @ X * A / / O.-.0.t.t.t.H 1 < < < < @ . . + ; 1     ",
"+ # & = = & % # % % # % # $ $ $ $ + o @ * = - - = = = & & # # & $ # # $ $ % @ X & d F C ] -.;.;.>.#.p < < < < : # . X & u !     ",
"5 , # # = = % # $ # $ $ & $ # # # + . X + & = - , = = & # $ # # $ $ % % # % @ X # < 3 < 2 5 3 5 0 3 , * * & & & + + ; 9 A ^     ",
"~ u & @ & & % % % % # % # # $ # # # # + + % & = = = = & # # # # # # $ $ $ $ @ X @ * * = = = = = = = & % # $ # # X @ 3 ! ^ T     ",
"^ C < & @ @ % $ % $ $ # # & $ + + * 5 < = # @ & > = = & # & & # $ $ # $ $ $ # X @ * > = = = = = - = & # # $ # # X # 3 ! ^ ^     ",
"..H 5 > # @ @ # # $ $ $ $ # @ # & 1 P s < & @ # & * - & # $ $ $ $ # $ $ # # @ X @ = - = = = = - = = & % $ # & # X @ 3 ! ! !     ",
"t.} 5 < , & @ + # $ # # % @ X = 9 F T s < < * # @ & = & $ # # $ $ $ $ $ @ X X . @ = - = , - = = > = * # $ # % # o @ 3 T ! P     ",
"y.@.5 < 1 , # # # # @ @ @ # $ 4 T ^ U a < 1 < & @ # & & $ $ $ $ $ $ # @ @ . . . @ = , = = = = = , = & & # $ # + X @ u &.-.@.    ",
"y.@.q < 1 < , & X X X X X * a U T ^ U 9 < < < < ; # X # # $ $ # $ # # X X X . X @ = - - = = = = = = & # $ # + X . @ g w.w.q.    ",
"_ V < = , , > & X . . @ * 4 P / T ^ U 9 1 < 1 1 < & # @ @ @ @ @ @ @ # $ = $ $ $ # % & - > = = , - = & & # o X . . + 2 _ _ _     ",
", - & & $ & $ # X . X * d P ! ! U ^ U 9 1 < < < < < = # X X X X X X $ 9 F C j 1 & o @ = = = = = = = & % @ X X X . o * , , ,     ",
"= * % # % % % @ X @ * 8 U / P ^ T O.O.s < < 1 < 1 1 < * @ + . . + $ 1 m ;.o.E 3 > & # # # # $ @ # # @ @ & * : * + o % = = =     ",
"- = & # # $ # @ X * d P ^ T T P T -.t.B 1 < < < < < < < , @ . X $ 8 U W O.t.] 3 < < & o X X X X X X X @ < C T s & o % = - -     ",
"= = & # $ $ % @ X * K / P ! P ! ! 1.0.B 2 < 1 < 1 < 1 1 : @ + * 3 A ^ P :.w.] 5 < 1 , $ @ X . . . . # < s ^ ..A < & # # & =     ",
"= = & % $ $ # @ X * c / ! P ! P ] -.0.j < < < < < < < 1 : + # 3 P ! P ^ &.q.] 5 < < 1 < & + X X . + < D ^ T ^ H u , # @ & =     ",
"= = & # # & # @ X * c ! ! ! P P T -.0.B < < < < < 1 < 1 ; @ # i o.1.1.0.9.a.#.5 < < 1 < < * @ X # < d ^ ! P ..@.s < * & # @     ",
"= & & $ # # % @ X * c ! P ! / / [ 0.0.S 3 < < < < < < 1 : @ # 5 ! &.&.>.>.>.S < , < < < < , # + : D ^ T T [ 0.>.V < 1 , # X     ",
"@ @ % % # $ $ @ X * c ^ ! ..1.0.0.t.0.S < < 1 < < < 1 1 , @ @ > 3 3 q q q 0 < * & * * * * * # + : P [ P T ^ 0.0.M < 1 < ; *     ",
". o # % $ $ $ @ X * C [ ! ..w.w.y.y.0.M 1 < < < 1 < < 1 , @ o & = = = - - - & & # & % # # # X X : P ! ! T [ 3.>.M < < < < <     ",
"                                                                                                                                ",
"                                                                                                                                "
};
