/* XPM */
static char *result[] = {
/* columns rows colors chars-per-pixel */
"64 64 72 1 ",
"  c #000000",
". c #070903",
"X c #090C04",
"o c #0D1206",
"O c #101607",
"+ c #121807",
"@ c #111608",
"# c #141A09",
"$ c #181F0B",
"% c #1B240C",
"& c #1F280D",
"* c #222D0F",
"= c #25310E",
"- c #242E10",
"; c #263210",
": c #293512",
"> c #2E3C14",
", c #303F15",
"< c #334215",
"1 c #374816",
"2 c #394B17",
"3 c #354518",
"4 c #3A4C1A",
"5 c #3E5317",
"6 c #3E521A",
"7 c #42551D",
"8 c #455A1D",
"9 c #485F1E",
"0 c #4A621E",
"q c #4F681F",
"w c #526E1D",
"e c #435620",
"r c #465B21",
"t c #495E21",
"y c #4D6421",
"u c #506724",
"i c #526B23",
"p c #566F28",
"a c #567124",
"s c #5A7625",
"d c #5D7B25",
"f c #577028",
"g c #5A742A",
"h c #5E7A2A",
"j c #617E2B",
"k c #628225",
"l c #678927",
"z c #65842C",
"x c #68872E",
"c c #6B8C2D",
"v c #6E912D",
"b c #71952D",
"n c #769D2B",
"m c #668231",
"M c #698730",
"N c #6C8B32",
"B c #6F9131",
"V c #739533",
"C c #769933",
"Z c #799E35",
"A c #799C39",
"S c #79A12E",
"D c #7DA533",
"F c #7DA239",
"G c #81A936",
"H c #80A63B",
"J c #85AD3A",
"K c #89B13E",
"L c #86AC40",
"P c #88AF41",
"I c #8CB441",
"U c #90B845",
/* pixels */
"GGGGGGGJDDZ;ONJKGGGGGDGJDDGGJJJJGGGGGGGJDDDGJJJJGJGGDGGGDDDGJJJK",
"DDJJJPJJJIF# dGDSZGJKKKKKKKJJGGGSGGJJKKKKIIKGDGGDDGJKKKKKKKKGGGG",
"JFh8<:--3IF# sGq**;,7gAUKIIJGSGGKJKKKUUKKIIJDDGDKJKKUUUUKUKJDDDG",
"Jj&.    %FA+ sJ4     #tHGJJGSGJJKJGGJJJJDJJGDGz1cJGGGJJGGJKDDGGJ",
"JGClsi09iDC+ jIxy0yfkVDSSGGJJKKKJJDGJGDSDDGGJK3 4GGGGGDDDGGGJKKK",
"GGJKIKJGJJF#.jKKGGJKIKJGJJJKKKKKGGJKKJcsy99tAK3 4GCtryyfcDJKKKKK",
"SDGKKKJGJGC+ sGJSDGKKKJJJGGJJGGJZDJKC,X    .cD< 1Dz     X,nJJDGJ",
"JJJKJKJKSnv+ wSGJJJJJKJKSnSSSnnGJGJJJBu7>==:ln> 4Gc>::<60kSSSSSJ",
"JKKJKKKGJGF>-NIJJIKJJKKGJJKKKUKGJKKJKKKJJGJJJI3 4KKJJKJJJGKKJIUG",
"DGGDDDDSSKIIZSDJDGGDDGDSSJUKGSGJGGGDSGSSGJUKGD< 2GGDDGDSDKUIGSGJ",
"GJJJJKGCADFAAnVCVGJJJKGDKKKKJGGGGJJJKKGGKKKKJG> 2JJJJJGDJKKKKGDJ",
"KKIIIJ8##+O@++++#>AIIIKJKJSSKKGJKKUKKKKJKJSSKJ1.7KIIIIKJKJSSKJGJ",
"IIKKKa            4KJJGSSSSSDSGJKKKKKJGSDGnnGDcNAIIKJJDSDSSSSSDK",
"KKKKJ7            -GJGSSJJJKJJGKKKKJGGSSGJJJJDDIKKJJGGDSGJJKJGGK",
"KKGJJ8            =GJGGGKKKKKKKJKJJJJJGJKKs3<<<,<,,4lJGGKKKKKKKK",
"JJGGG7            *SGGGSGGKJSJKJKJGGGSGSGcO         *SGDGGJJDGKG",
"DGGGD7            -DHDGJDDGGJJJJGGGGGGGJDk.         @VGJDDDGJKJJ",
"DGGKK0            -GJIKKKKKJGGGGDGGJJKKKKN.         +AKKKKKJGGGG",
"KKKKIy            -JIUUUKUIJDDGGJJJIIUUIIN.         +HUUKIIJGSGD",
"JGDGJ8            *DJJJGDJJGDGJGJJGGJJJGDx.         OCJGDJKGDGJJ",
"JGGDG8            *FGGDDSGGGGKPKJGGGGGDDDz.         OVDDSGJGJKKK",
"GGJIIt            *LIKJGJJJKKIKKGGJKIIJGGx.         #AJDJJJKKKKK",
"FDDJKr            -JIHDDDDDGDADDnCDJHGHDGk.         +ZJGJGGJJDGK",
"G9&zJr            -GZ:&&%%%%%%%&&&&&&&&tSd.         +AJikSSSSnSG",
"F% yJ6            &DcX                 :Js.         XVD%osKJJIIJ",
"n$ o:X             *&                  .:# X40quyy3X %-  %HIGDGJ",
"C%        *4e;.       %17>o       #37,@    yJGGGGJJr      fKKGDG",
"F%      X0vDJJd#     7FJKGd&     3FIIIV:  XlKh0yyxINX     5SKJGJ",
"H%      6DndsbDzX   3DDdabnkO   :JIVhVDc% XlD*   <IN.     2nDDSJ",
"F%     ovJ8. =CP>  XxG0X &VJ4   hJho #kS9 oVG;   >KNX     8JJGGK",
"F%     *JA+   jJr  #AD&   uIf  oVJ>   2Gz.oCK:   >JcX     8IKIIJ",
"F%     &DC#  .zGe  +bD*   iJq  XNJ<   5Dh ovD;   >Gc.     4GDGKJ",
"A%     ozDi+o4GH-  .dDh%X>CG<   uGx&X;VG6 XbG;   >Gc.     X4vJJJ",
"S=      3JIAVDGi.   :FIACJKjX   %vGAVGIN# oVG: . ,GcX       #hGG",
"J4       4CGDv0X     ,VIIHf@     -zJIPj&  XcDlddzVJN.        %bG",
"Js        O*=#        X*;%.       X&:%.    4ZGJJJGF3          9J",
"JC%                                        .-44431*           :J",
"GGi                                                           &H",
"DDD>        #<<3><<3331<<<<33<<<<>33333<3<<13<3<,<<131-       -F",
"GGJV*       anSGGJJJJJJKnnnDZnnJGJJJJKJPnnnSnnSGGJJJJKA%      5J",
"JIIJV:      6NBxxcMMzMMzzkMmxNNkxcNxzMMzMzzxzNNjzNxxxcpo     %AG",
"DGGDDZ8+       . ....  .......... . ... .. ..... . . .      #sGG",
"GJJGJJGvi>%+ooooooooooOoooooXoo..ooooooooooooooooooooooooO%4VGDJ",
"KIIIIIKJKDblCCBBCCAAAACBZbllCCu#+fAAACCbZblcCCcVCAAAAACVCVvSKJGJ",
"KKKKKGDSSDSSDDSKKKKKJJDDDDnnDyO  @pJJJDSDDnnGDDJIIIKKGDSDDnSDDDJ",
"KKKJGGDSDKKJKDGKKKKJJDDSGJJF4. $% .4AGDSDJJJJGGKKKJJJGSSGJJJGGGK",
"KKJJJJGGKKKUKKKKKKKJJJDGKKV:  ,VC>  *cGGKKIIKKKJKJJJJGGGKKKIKIIJ",
"KJGGGDDGGDJGDGKGKGGJDDDDDf+ .8GGJF8X OiDGGJGDGKJKJJDGDDDGGJJDGKG",
"GGGGGGGJSDGGJJJJGGGGGGGF6. #dJJJGGDs# .6bDDJJJJJDGGGDDJGDDDGJJJK",
"SGGJJKKKKKKJGGGGDGGJKKC:  :BGGDJDDGJV>  :CIJGGGGDDGKKKKKKKKKGGDG",
"JKKKUUUKKKUJDDGGJJJKIm% .eJJDDDGKJKIIPrX $jGDDDGKJKKUUUUKUKJDDDG",
"JJGGGKJJGJJGDGJJJJGD9X @iGJFDDKGJJGGGJGa+ X8ZGJGJKGDGGKGGJKDDGJJ",
"JGGGGGDSDGGGJKKKGGb>. *kDDGGJKKKJGGGGGDDz*  >CIIGGDDGGDSDGGGJKKK",
"GGJKKKJGJJJKKKKKDz& .4AGKJJKKKKKGGJIIKJGJF6. %zJGGKKIIKDJJKJKKKK",
"SDGKKKJGJGGJGDGG9X ouJJGJDGKJDGKDDGKKKJGJDDpO XySDJKKKGDGGGJGDGJ",
"JJJKKKJKSSSDSnv1. &xKJJKSnSSSnSGGJJJJJKKSnnDd& .<CJJKKKKSSSDSSSJ",
"JKKJJKKJJGJJJN- .3AGJKKGJGJKJIIGJKKJJKJGJGJJKF4. *NJJKKGJGKKGUUD",
"DJGDGDDnSke4,O  X>1<<<<><343<<<<,1<<<<<<<343<<>X  o><4snDJUUDDGG",
"GJJJJJGGq.                                            .8KKIKKGDJ",
"KKIIIIJVO                                              OnGSSKKDJ",
"KIKKJJDs.                                               sDSSDDDJ",
"KKKKGGDk.                                              .kJJKJDGK",
"KJJJGJGD>                                              :JKKKKKKK",
"JJGGGGDDv>.                                          .>vGDJGDGKJ"
};
