/* XPM */
static char *result[] = {
/* columns rows colors chars-per-pixel */
"64 64 164 2 ",
"   c #010101",
".  c #050904",
"X  c #0A0D04",
"o  c #000609",
"O  c #010B0A",
"+  c #0B0B0C",
"@  c #130D0B",
"#  c #0D1206",
"$  c #00110F",
"%  c #101507",
"&  c #111608",
"*  c #151C0A",
"=  c #181F0B",
"-  c #000C11",
";  c #0B0F10",
":  c #001412",
">  c #0E1214",
",  c #001A17",
"<  c #00131B",
"1  c #001E1B",
"2  c #1E1511",
"3  c #141719",
"4  c #191A1A",
"5  c #241916",
"6  c #1B230C",
"7  c #1F280D",
"8  c #00211E",
"9  c #232D0F",
"0  c #26320F",
"q  c #222C10",
"w  c #263211",
"e  c #293612",
"r  c #2D3B14",
"t  c #303E15",
"y  c #001A26",
"u  c #001D2A",
"i  c #181F23",
"p  c #002521",
"a  c #002B26",
"s  c #002D29",
"d  c #1A2225",
"f  c #1E272B",
"g  c #00322D",
"h  c #002637",
"j  c #00293C",
"k  c #003631",
"l  c #003C35",
"z  c #003E38",
"x  c #242526",
"c  c #292B2C",
"v  c #232D32",
"b  c #273338",
"n  c #28343A",
"m  c #563C33",
"M  c #344416",
"N  c #384A16",
"B  c #374719",
"V  c #374818",
"C  c #3A4B19",
"Z  c #3E511B",
"A  c #00433D",
"S  c #41551D",
"D  c #465C1D",
"F  c #495F1F",
"G  c #4B621E",
"H  c #536F1F",
"J  c #465921",
"K  c #61443A",
"L  c #4D6422",
"P  c #526B24",
"I  c #566E29",
"U  c #5A7626",
"Y  c #5A7429",
"T  c #5F7A2B",
"R  c #607F27",
"E  c #617E2C",
"W  c #012F43",
"Q  c #013147",
"!  c #013851",
"~  c #2D3A41",
"^  c #3D3F40",
"/  c #004640",
"(  c #004C44",
")  c #005147",
"_  c #00544B",
"`  c #00584E",
"'  c #005A51",
"]  c #314047",
"[  c #3E4142",
"{  c #33434A",
"}  c #394A53",
"|  c #3E515A",
" . c #016255",
".. c #006459",
"X. c #00695F",
"o. c #01557A",
"O. c #006C62",
"+. c #017264",
"@. c #00756A",
"#. c #017A6D",
"$. c #017E72",
"%. c #41555F",
"&. c #715043",
"*. c #785448",
"=. c #455A64",
"-. c #465B65",
";. c #4F6773",
":. c #56707D",
">. c #626668",
",. c #6B7072",
"<. c #64832B",
"1. c #658529",
"2. c #6B8C2C",
"3. c #6E912B",
"4. c #72952E",
"5. c #769D2B",
"6. c #6C8C31",
"7. c #6F9031",
"8. c #729532",
"9. c #779B33",
"0. c #799E33",
"q. c #769838",
"w. c #79A12E",
"e. c #7DA533",
"r. c #7EA339",
"t. c #03806F",
"y. c #018375",
"u. c #008579",
"i. c #008A7C",
"p. c #81A936",
"a. c #81A73A",
"s. c #85AD3A",
"d. c #89B13E",
"f. c #8CB441",
"g. c #90B845",
"h. c #015E88",
"j. c #01638F",
"k. c #016A98",
"l. c #017BB1",
"z. c #5B7785",
"x. c #617E8D",
"c. c #008E81",
"v. c #019284",
"b. c #009688",
"n. c #00998A",
"m. c #0282BC",
"M. c #63818F",
"N. c #648391",
"B. c #028DCB",
"V. c #0292D3",
"C. c #029ADF",
"Z. c #029CE2",
"A. c #02A3EC",
"S. c #02AAF5",
"D. c #02ADFA",
"F. c #8C9295",
"G. c #9DA4A7",
"H. c #A6ADB0",
"J. c #A8B0B3",
"K. c #B7BFC2",
"L. c #B9C1C5",
"P. c #C4CDD1",
"I. c #CED7DB",
"U. c #D1DADE",
/* pixels */
"p.p.p.p.a.p.p.s.e.e.<.q . X S r.p.p.p.p.p.p.p.a.e.e.e.p.s.s.s.d.p.p.p.p.p.p.p.s.e.e.e.p.s.s.s.s.p.p.p.p.e.p.p.s.w.e.e.p.s.s.s.s.",
"e.e.s.s.s.s.a.a.a.0.q   .     S 9.0.e.r.s.d.f.f.d.d.f.s.p.s.p.p.w.p.p.s.s.d.d.d.d.f.d.s.p.p.p.p.e.p.p.s.d.d.d.d.d.d.d.d.p.p.p.s.",
"s.a.2.L B e q 6 6 =   4 F.>.  X 6 6 6 9 r S T r.f.f.f.s.p.w.w.p.d.s.d.d.d.g.g.d.d.f.f.s.p.e.e.e.d.s.d.d.f.g.g.g.d.f.f.s.e.w.e.p.",
"8.t X                 ^ U.H.+                 % D e.s.p.w.p.d.s.s.s.p.p.s.s.s.s.p.p.s.p.5.F w e P e.p.p.s.s.s.a.p.s.d.e.e.p.s.s.",
"6   + d ~ } | =.=.b   m I.H.+ + } =.=.| { v 3   . L s.p.s.d.d.d.s.s.e.p.s.p.e.w.e.e.a.p.N       . D e.a.a.p.e.e.w.p.p.p.s.d.d.d.",
".   d -.z.z.x.x.M.}   %.I.H.+ ; :.M.x.x.z.z.} +   S s.d.d.d.d.d.p.a.s.f.s.2.L C M t t e X + >.>.  X r t M N Z L 2.e.s.d.d.d.d.d.",
"M     + 3 f v b n i   n I.H.+ . v b b v d > .   % 1.p.s.s.p.p.s.w.e.e.L 6 X               x P.J.4               . 9 P s.p.e.p.s.",
"e.P 9 X o             %.I.H.+             . % M U 5.5.w.w.5.w.p.a.s.D     + d b ~ ] { v   c P.K.4   n { ~ ~ b i +   X G w.w.w.s.",
"s.d.a.7.Y L S Z Z 9   [ I.H.+ X B S S S P <.q.p.s.p.s.d.d.d.d.p.s.a.9   i =.z.x.M.M.M.=.  c P.K.4 o ;.N.M.M.x.z.| >   r s.f.f.s.",
"p.p.s.e.e.p.e.w.e.P   [ U.H.+ % 4.p.p.p.e.p.e.5.p.d.g.d.p.p.p.s.p.p.Z     > v n { } } n   c P.K.4   ~ } } { n f >     P a.e.p.p.",
"p.s.s.a.s.d.e.R Y M   c F.,.+ X G U 7.p.s.s.s.e.s.d.d.d.s.p.e.p.p.a.e.D *                 c P.L.4               . 6 P a.d.p.e.s.",
"d.d.f.f.f.8.w .                     # D s.f.d.s.d.s.w.w.d.d.p.s.d.f.f.f.a.<.J M r e 9 6   c P.L.4   9 e e r N D <.q.5.e.d.s.p.s.",
"d.d.d.d.q.6   O p p p p 8 p p p 8 $   . S p.e.w.e.e.w.w.e.w.e.d.d.f.d.d.d.p.e.w.e.5.5.H   c P.L.4 X 7.d.s.p.e.w.e.w.w.w.e.w.e.d.",
"d.d.d.d.D   , @.v.c.v.c.c.v.c.v.y. .l   # 3.e.w.p.s.s.s.s.s.p.d.d.d.d.s.p.p.e.w.p.a.8.L . x G.F.3 . Y 8.p.p.e.w.p.s.s.d.s.e.p.d.",
"d.s.s.s.r   ( n.b.b.b.b.b.b.b.b.v.+. .:   U p.p.d.d.d.d.d.d.d.s.d.s.s.s.s.p.p.p.8.t # .     + +     . % M 8.p.p.d.d.d.d.d.d.d.d.",
"s.s.p.e.w   ' b.b.b.b.b.b.b.b.b.v.+. .,   H e.p.p.p.s.s.w.s.d.p.s.s.p.p.p.p.e.4.6   o : $ $ : $ : $ O     e w.e.p.p.s.s.e.p.d.p.",
"p.p.e.e.0   ` n.v.b.b.b.b.b.v.b.v.+. .8 . P p.p.p.w.p.p.s.s.s.d.p.p.p.p.p.p.p.P   - O.y.u.y.y.y.y.$. .A o . R p.p.w.p.p.s.s.s.s.",
"e.e.s.a.e   ' n.b.b.b.b.b.b.b.b.v.+. .,   U d.d.d.d.d.d.p.p.p.p.e.p.s.s.s.d.d.D   l b.n.b.n.n.b.b.v.+...1   P d.d.d.d.s.p.p.p.p.",
"d.s.s.d.e   ` n.b.b.b.b.b.b.b.b.v.+. .,   T g.g.d.f.f.s.e.e.p.e.s.s.s.d.f.g.g.S   z b.b.b.b.b.b.b.v.+.X.8   I g.d.g.f.s.p.p.p.p.",
"d.s.p.e.w   ' n.b.b.b.b.b.b.b.b.v.+. .,   U s.p.e.s.s.p.w.s.s.s.s.s.p.p.s.s.s.Z   z b.b.b.b.b.b.b.b.+...1   G s.p.p.s.p.w.p.p.s.",
"s.p.p.e.w   ` n.b.b.b.b.b.b.b.b.v.+...,   P e.w.e.p.p.p.s.d.d.d.s.s.p.p.p.p.e.C   z b.b.b.b.b.b.b.v.+.X.8   G w.p.p.s.p.p.d.d.d.",
"p.s.s.s.e   ' n.b.b.b.b.b.b.b.b.v.+...,   Y s.p.s.s.s.d.d.d.d.d.p.p.s.d.f.f.s.C   z b.b.b.b.b.b.b.v.+.X.1   L p.p.s.s.d.d.d.d.d.",
"e.1.S B %   ` n.b.v.b.b.b.b.b.b.v.+. .,   9 V V M V M M V M M B M M M V V B B 6   z n.b.b.b.b.b.b.v.+. .1   e <.p.p.p.s.s.p.p.s.",
"U %         ' n.b.b.b.b.b.b.b.b.v.y.#.8                                           z b.b.b.b.b.b.b.b.y.@.8     X 0 R 5.w.w.5.w.s.",
"6   8 A :   ` n.b.b.b.b.b.b.b.b.n.n.i.a   s / / / / / / / / / / A / A / / / / 8   z b.b.b.b.n.b.b.b.b.v.a   $ .   = 6.d.s.f.f.p.",
"  o +.b.g   ' n.b.b.b.b.b.b.b.b.b.b.i.a   ..n.n.n.n.n.n.n.b.n.b.n.n.n.n.n.n.n.(   / b.b.n.n.n.n.n.n.b.b.g   A ) :   e s.p.e.p.s.",
"  o #.n.O.A y.b.b.b.b.b.n.n.b.b.b.b.n.X.A i.n.n.n.n.b.b.b.b.b.b.b.b.b.n.n.b.n.#.z @.n.i.O.' .. . .O.c.n.O.A #.+.) o . T d.p.e.p.",
"  o #.b.b.b.b.b.b.b.b.y.O.@.i.b.b.b.b.n.b.n.v.#.O.@.v.b.b.b.b.b.b.b.i.@.O.$.b.n.n.n.i.s             g v.b.n.b.#.X.p   N d.s.p.s.",
"  o #.b.b.b.b.b.b.i./ -   o 8 ..b.b.b.b.b.y.g o   o s #.b.b.b.b.b.O.8 o   O A i.n.n.O.  O j j j h o o #.n.b.b.t.X.l   0 e.w.e.s.",
"  o #.n.b.b.b.b.v.z   o y <   O X.b.b.b.y.8   O u -   1 y.b.b.b.+.O   < u O   k b.n.'   j Z.A.A.V.y o +.b.b.b.t.X.l   e p.p.p.d.",
"  o #.n.b.b.b.n.@.o O j.Z.V.!   s v.b.n.`   y l.Z.m.u   ( b.b.v.g   Q B.Z.k.- o O.n. .  j A.S.S.Z.y   +.n.b.b.t.X.l   e d.d.f.s.",
"  o #.n.b.b.b.b.`   W A.S.D.m.o $ y.b.b.g   o.D.D.D.j.  s v.b.i.,   l.D.D.A.!   _ n.'   j A.S.S.C.u   +.n.b.b.t.X.l   6 3.p.d.s.",
"  o #.n.b.b.b.n.'   W A.S.D.B.o : y.b.b.k   o.D.S.D.h.  s v.b.i., o l.D.S.A.!   _ n...  W Z.S.S.Z.y   +.b.b.b.i.+.A     6 <.s.s.",
"  o @.b.b.b.b.b.@.o o j.C.B.!   s v.b.b._   y l.Z.m.u   ( b.b.v.g   Q B.Z.k.- o O.n. .  W A.S.D.Z.y   +.n.b.b.b.v.@.l +   % 1.s.",
"X   O.n.b.b.b.b.v.z   o y <   O O.b.b.b.u.p   O u -   1 y.b.b.b.O.:   < u O   k c.n.'   j Z.Z.Z.V.y o +.n.b.b.b.b.b.#.` ,   6 4.",
"6   _ b.b.b.b.b.b.c./ :     8 ..b.b.b.b.b.$.g o   o s $.b.b.b.b.b.O.8 o   O z i.n.n.O.  - h W W j o o @.b.b.b.b.b.b.v.+.` $   F ",
"V   g v.b.b.b.b.b.b.b.$.O.@.i.b.b.v.b.b.b.b.v.#.O.#.v.b.b.b.b.b.b.b.i.@.O.$.b.b.b.b.i.s             k c.n.b.b.b.b.b.b.t.X.k   7 ",
"U X O @.n.b.b.b.b.b.b.b.n.n.b.b.b.b.b.b.b.b.b.n.n.n.b.b.b.b.b.b.b.b.n.b.n.b.b.b.b.b.b.i.O... . . .O.c.n.b.b.b.b.b.b.n.y.X.A   X ",
"5.0   l b.b.b.b.b.b.b.b.b.n.n.n.n.n.b.b.n.n.n.n.n.n.n.n.n.n.b.n.n.n.n.n.n.b.n.n.n.n.n.n.n.n.n.n.n.n.n.n.n.b.b.b.b.b.n.i.X._ o   ",
"p.T . o ' b.b.b.b.b.b.b.v.' A A / / / / / / A / / / / A / / / / / / / / / / / / / / / / / / / / / / / / / _ i.b.b.b.n.y.X.A   # ",
"s.s.C   O O.b.b.b.b.b.b.#.O                                                                                  .n.b.b.n.#.X.g   0 ",
"p.p.9.0   $ ' v.n.b.b.b.c._ z z z z z z z z z z z z l z z l z z l z l z z z l z z z z l l A l z z z z z z / u.n.b.b.i.+.A X . P ",
"p.s.s.8.e   o g +.v.n.n.n.n.n.n.n.n.n.n.n.n.n.n.n.n.n.n.n.n.n.n.n.n.n.n.n.n.n.n.n.b.n.n.n.n.n.n.n.n.n.n.n.n.n.n.n.b.+.( $   0 e.",
"d.d.f.f.a.Z X   o p / ' X.X.O.X.X.X.O...O.O...O.O.X.O.X.O.X.O...O...O.O.X.X.O.X.O.O.X.O.X.X.O.X.O.X.X.X.X.O.X.X. .) 8 X   6 2.s.",
"d.d.d.d.s.a.T e X         o       o               o               o       o             o                   o           r 2.e.d.",
"d.d.d.s.s.p.w.5.1.L M 9 6 6 6 6 6 6 6 6 6 6 6 6 6 6 6 6 %             % 6 6 = = 6 6 6 6 6 6 6 6 6 6 6 6 6 6 6 * 6 0 C <.e.p.e.d.",
"d.d.s.s.s.s.s.p.d.d.f.s.a.a.a.e.r.r.e.r.r.e.0.0.a.a.f.<.6   X S Z .   6 T e.5.0.a.a.a.s.a.a.a.r.r.r.r.r.r.0.0.e.a.s.d.f.d.d.d.d.",
"s.s.p.p.p.e.e.e.p.p.s.p.e.s.d.p.d.d.s.r.e.e.e.e.r.e.L %   % Y p.s.I &   % P e.e.e.p.s.s.e.p.f.a.d.s.s.e.p.e.e.e.p.e.s.s.e.e.d.s.",
"p.p.p.p.p.p.p.s.e.e.p.p.s.s.s.s.p.p.p.p.p.p.p.s.4.V .   9 2.s.s.p.p.2.9   . N 0.w.p.p.p.s.p.s.s.e.e.s.e.p.p.p.s.e.e.p.p.s.s.s.s.",
"e.p.p.s.d.d.d.d.d.d.d.d.p.p.p.p.p.p.p.p.s.d.d.7.w   . C 5.p.p.s.p.p.p.0.C .   9 8.f.d.s.p.p.p.p.e.s.e.d.d.d.d.d.d.d.d.s.p.p.p.s.",
"s.s.d.d.d.g.g.d.d.d.d.s.e.e.p.p.s.d.s.d.g.f.E *   & I p.p.w.p.p.s.s.d.d.f.I %   * E d.s.p.e.p.p.s.d.d.d.d.g.g.g.d.d.g.s.e.e.e.p.",
"s.s.p.p.s.s.d.p.e.s.d.p.e.p.p.s.s.s.p.p.e.S .   q 1.p.p.p.p.p.s.s.p.p.p.p.s.1.9   . S 0.w.p.a.s.s.s.e.s.p.s.s.p.e.s.s.p.e.p.s.s.",
"s.p.p.p.p.p.e.e.e.p.p.p.s.d.d.d.s.p.p.2.e   . t 2.p.p.p.s.d.d.d.s.p.p.p.s.p.p.3.t .   e 4.d.d.d.s.p.e.p.s.p.e.e.e.p.p.p.s.d.d.d.",
"p.p.s.d.d.d.s.p.s.s.s.d.d.d.d.d.p.p.E =   X G e.s.p.d.d.d.d.d.d.p.p.s.d.d.d.s.p.p.J #   = E f.d.e.p.s.d.d.d.s.e.s.s.d.d.d.d.d.d.",
"e.e.s.d.d.d.s.p.s.p.p.s.s.e.p.s.5.S X   6 <.s.p.s.p.p.s.s.p.p.s.w.p.s.d.d.d.s.p.s.p.R =   X D p.e.e.s.d.d.d.s.p.s.p.p.s.p.e.p.s.",
"p.s.s.s.d.d.s.d.w.w.w.w.w.5.w.5.t     t 8.d.s.d.w.5.5.w.w.5.w.p.p.s.s.s.s.s.d.d.5.5.5.2.e     t 4.s.s.s.d.d.s.d.w.w.w.w.w.w.w.s.",
"s.d.d.p.s.s.d.p.s.p.s.d.s.f.6.6   # J p.s.d.s.s.s.s.s.d.d.d.f.s.s.d.d.s.s.d.d.s.s.p.d.d.a.J X   6 <.d.s.d.d.d.p.p.p.d.d.s.d.g.p.",
"p.p.p.p.p.p.p.5.e.s.8.I L C X     0 L L G G G D G L I P L F L L G L G G G G G D F P I P L G 0     # Z G G 1.w.w.e.s.g.d.p.e.p.s.",
"p.s.s.s.s.s.s.p.s.G #                 .                                                                   X D e.d.d.d.d.d.p.e.s.",
"d.d.g.d.g.d.d.s.2.X   2 5 5 5 5 5 5 5 5 5 5 5 5 5 5 5 5 5 5 5 5 5 5 5 5 5 5 5 5 5 5 5 5 5 5 5 5 5 5 5 5 2   # 1.d.s.w.w.d.s.p.s.",
"d.d.d.d.d.p.p.w.D   5 &.*.*.*.*.*.*.*.*.*.*.*.*.*.*.*.*.*.*.*.*.*.*.*.*.*.*.*.*.*.*.*.*.*.*.*.*.*.*.*.*.&.2   D e.e.w.w.e.e.w.d.",
"d.d.d.d.p.p.w.w.P   @ m K K K K K K K K K K K K K K K K K K K K K K K K K K K K K K K K K K K K K K K K m @   G e.s.s.d.p.p.p.d.",
"d.s.s.s.p.p.p.p.q.6     . . . . .   X     X . . . . . .   X X     X . . . . . .   X X     X . . . . . . .   6 5.d.d.d.d.d.d.d.d.",
"s.s.p.p.p.p.p.w.p.1.q               .                                                                     6 1.e.p.p.s.s.e.p.d.p."
};
