/* XPM */
static char *result[] = {
/* columns rows colors chars-per-pixel */
"64 64 249 2 ",
"   c #171B0E",
".  c #1A1E11",
"X  c #1D2213",
"o  c #222515",
"O  c #252C17",
"+  c #252B1A",
"@  c #2C331B",
"#  c #2D3719",
"$  c #313A1D",
"%  c #2D3222",
"&  c #353B27",
"*  c #55310E",
"=  c #6F3D08",
"-  c #503925",
";  c #6B3B26",
":  c #773D2A",
">  c #055A1A",
",  c #12591B",
"<  c #37461C",
"1  c #23551E",
"2  c #3E5719",
"3  c #0F621F",
"4  c #32641B",
"5  c #3C4428",
"6  c #3D4432",
"7  c #166A26",
"8  c #067829",
"9  c #1B792A",
"0  c #257627",
"q  c #31702E",
"w  c #544718",
"e  c #435D1C",
"r  c #48591D",
"t  c #57541C",
"y  c #665018",
"u  c #45621D",
"i  c #49641D",
"p  c #4C6A1E",
"a  c #54691D",
"s  c #4B711F",
"d  c #766F1D",
"f  c #474A29",
"g  c #564925",
"h  c #4B5D22",
"j  c #475829",
"k  c #535A2F",
"l  c #424A37",
"z  c #475737",
"x  c #674925",
"c  c #714D2E",
"v  c #685C2D",
"b  c #75562A",
"n  c #7B5931",
"m  c #4C6423",
"M  c #4E6A22",
"N  c #4C6529",
"B  c #526D24",
"V  c #586528",
"C  c #556C2A",
"Z  c #467928",
"A  c #557324",
"S  c #597626",
"D  c #5B7B25",
"F  c #577328",
"G  c #5B752B",
"H  c #5D7A2A",
"J  c #4C6434",
"K  c #566936",
"L  c #587237",
"P  c #5A743D",
"I  c #5C793F",
"U  c #656B26",
"Y  c #667527",
"T  c #627D2C",
"R  c #767B2C",
"E  c #726831",
"W  c #647C33",
"Q  c #677939",
"!  c #747734",
"~  c #515946",
"^  c #5B6946",
"/  c #5C654B",
"(  c #546B4C",
")  c #5C7746",
"_  c #646C46",
"`  c #626C4B",
"'  c #637B42",
"]  c #65744A",
"[  c #697749",
"{  c #767B49",
"}  c #636B54",
"|  c #666D57",
" . c #697553",
".. c #757956",
"X. c #597A70",
"o. c #747D62",
"O. c #8C5610",
"+. c #885C27",
"@. c #89662C",
"#. c #89762C",
"$. c #96702D",
"%. c #987A32",
"&. c #A66D2F",
"*. c #A9722E",
"=. c #AB7533",
"-. c #957D4A",
";. c #08842D",
":. c #118B31",
">. c #1A8B35",
",. c #079435",
"<. c #029B36",
"1. c #2B8A36",
"2. c #368D33",
"3. c #538B31",
"4. c #589538",
"5. c #66862B",
"6. c #63832C",
"7. c #6A8B2E",
"8. c #78842B",
"9. c #6E912E",
"0. c #73962C",
"q. c #759D2B",
"w. c #658231",
"e. c #6A8533",
"r. c #6C8B33",
"t. c #6A873A",
"y. c #728D34",
"u. c #768838",
"i. c #6E9234",
"p. c #699B37",
"a. c #739434",
"s. c #7C9335",
"d. c #759B34",
"f. c #7A9C35",
"g. c #74943A",
"h. c #7A953A",
"j. c #769B3B",
"k. c #7B9C3A",
"l. c #77A12E",
"z. c #79A12E",
"x. c #6DA33B",
"c. c #7DA533",
"v. c #7EA23B",
"b. c #78A63A",
"n. c #199A45",
"m. c #388B48",
"M. c #35974D",
"N. c #34A658",
"B. c #4E8B4F",
"V. c #589849",
"C. c #579656",
"Z. c #698548",
"A. c #758747",
"S. c #609B42",
"D. c #789644",
"F. c #6F8A56",
"G. c #728656",
"H. c #689856",
"J. c #47A55C",
"K. c #55A454",
"L. c #78A84A",
"P. c #70A551",
"I. c #5A9268",
"U. c #708D70",
"Y. c #6BA475",
"T. c #878C2B",
"R. c #928C2E",
"E. c #89962E",
"W. c #878933",
"Q. c #978736",
"!. c #849533",
"~. c #8B9433",
"^. c #879B39",
"/. c #959B36",
"(. c #A89437",
"). c #9DA32F",
"_. c #81A536",
"`. c #81A936",
"'. c #83A53D",
"]. c #8AA73D",
"[. c #85AC3A",
"{. c #98A538",
"}. c #87B13C",
"|. c #89B13E",
" X c #A7AA36",
".X c #AEB23A",
"XX c #B4B539",
"oX c #B7B739",
"OX c #889845",
"+X c #8B934F",
"@X c #AE8E46",
"#X c #BA9846",
"$X c #85AC42",
"%X c #89AE42",
"&X c #87A748",
"*X c #97A945",
"=X c #8CB442",
"-X c #8BB446",
";X c #91B945",
":X c #94B648",
">X c #88A656",
",X c #95AA57",
"<X c #8AB05A",
"1X c #97B757",
"2X c #A6A945",
"3X c #B1A84D",
"4X c #ABB85B",
"5X c #869668",
"6X c #8D906A",
"7X c #889879",
"8X c #969B7B",
"9X c #A7996E",
"0X c #94B069",
"qX c #98A776",
"wX c #A6B866",
"eX c #ADB871",
"rX c #C4A44A",
"tX c #C9A755",
"yX c #E3B35F",
"uX c #D8AE61",
"iX c #E7B86A",
"pX c #9CC548",
"aX c #9CC34C",
"sX c #A0C74E",
"dX c #A2CB4E",
"fX c #A4CC54",
"gX c #AAD452",
"hX c #ADD854",
"jX c #B0C86D",
"kX c #B7CC77",
"lX c #C2C34F",
"zX c #668A85",
"xX c #70938B",
"cX c #749A96",
"vX c #7BA4A2",
"bX c #8C9A87",
"nX c #89A989",
"mX c #99A687",
"MX c #99A497",
"NX c #AAB18F",
"BX c #89B3AE",
"VX c #A8B3A5",
"CX c #C6BDA9",
"ZX c #AFC28B",
"AX c #B9C5A3",
"SX c #C4D187",
"DX c #C6CDB3",
"FX c #D1D8C9",
"GX c #EBEDE0",
/* pixels */
"`.`.`.`.`.`.`.[.z.`.`.`.[.[.[.[.`.`.`.`.`.`.[.[.z.`.`.`.[.[.[.}.`.`.`.$X,X0X1X:Xc.c.c.c.}.b.p.4.p.b.c.`.c.`.`.[.c.c.`.`.[.[.[.}.",
"c.`.`.[.}.}.|.|.|.|.|.}.`.`.`.[._.`.`.[.}.}.|.|.|.|.|.}.`.`.`.`.z.`.`.:XZXDXAXZX1X-X|.}.[.b.P.H.H.D.b.}.}.|.|.|.|.|.|.}.`.`.`.`.",
"[.[.}.|.|.;X;X;X|.;X|.[.`.z.`.`.}.[.}.|.|.;X;X|.|.|.|.}.c.c.c.`.}.[.}.:XZXAXDXAXeX<X=X`.c.p.K.C.I.B.S.&X=X;X;X=X|.=X=X[.`.z.`.`.",
"}.[.`.`.[.[.[.[.`.`.[.`._.`.[.`.[.[.`.`.[.[.[.[.`.[.[.`.c.`.[.[.}.[.`.[.&XeXAXAXeX%X[.x.S.K.C.I.I.m.m.V.L.[.[.[.c.[.}.`.z.`.[.`.",
"[.`.`.`.`.`._.z._.`.`.`.`.|.|.|.[.`.`.`.[.`.c.z._.`.`.[.[.|.|.|.[.`.`.c.b.}.$XL.D.p.V.J.J.N.Z K [ B.M.M.V.b.c.c.z.`.`.`.}.|.|.|.",
"`.`.}.|.|.|.[.`.`.[.}.|.|.|.|.|.`.[.[.}.=X|.[.`.}.`.[.|.|.|.=X|.c.[.[.=X-X%Xx.p.C.N.N.M.1.9 9 q k ] C.M.C.L.$Xc.}.[.}.}.|.|.|.|.",
"c.c.[.}.|.|.[.`.}.`.`.}.`.`.`.}.z.c.`.|.|.|.[._.[.`._.`.k.f.j.k.d.c.v.v.x.p.K.N.N.n.n.9 9 ;.8 8 7 0 B.H.P.&X$X`.[.`.`.[.[.c.[.[.",
"`.[.[.[.}.}.[.|.z.q.z.z.z.q.z.`.[.[.[.}.[.[.[.v.7.Q ' ] ] _ ` ] ] ] ] ' S.V.B.1.n.,.;.,.8 8 8 :.2.4.x.L.%X|.[.|.z.q.z.z.z.q.z.[.",
"[.}.}.[.}.|.}.`.[.`.[.[.[.=X=X`.[.%X%X`.[.D.{ _ / } } } } ( } ( / / ^ ` A.A.) ( ( J q 7 9 1.4.p.b.[.|.[.[.|.|.[.[.`.|.}.}.|.|.[.",
"`.[.`.`._.`.z.z.`.}.;X].g.g.g.g.y.y.j.g.A.] ` } } } } } / ^ ^ P ^ P P ) Z.) / } } | | ( ) t.i.j.j.h.j.g.d.f.c.z.`.}.;X|.`._.`.[.",
"`.`.[.[.[.}.[.`.[.|.|.D.] ` / / / / [ OX&XG.| | | } ( ~ K P I I I I I I Z.Z. . .} | | | A.+X .}  .} ` ] u.k.`.c.[.|.|.|.[.`.`.`.",
"|.|.;X|.=X|.}.}.|.`.q.e.^ } / | | | } G.&XD.A.[ _ ^ J J K ) I I I I I I I ) Z.Z. ._ [ G.D.A. .| | / ~ / ) [ D.v.|.[.z.z.|.}.`.[.",
"|.|.|.|.}.[.c.z.z.c.l.e.Q ` | | } } { ! ^.*X*X~.Y V J K P ) I I I I I I I I I Z.F.u.u.^.OXOX{ ..} ~ / / / / [ g.z._.z.z._.z.`.}.",
"|.|.|.|.`.`.z.z.`.[.[.j.t./ }  .+X/. X)./.{.|./.! J J J P I I I I I I I I I I Z.Z.A.OX^. XXXXXOX! ` } } } / ] t._.[.}.|.`.`.`.}.",
"|.}.[.[.[.`.`.`.|.|.=X|.D.' _ _ W.).XXXX X{.!.Q J j 6 J L P I ) I ) I I I I I ) Z.F.A.u./.XXXX/.! _ / } / / ] u.[.|.|.|.|.|.|.}.",
"}.[.`.`.`.`.c.c.`.`.}.c.c.t.Q ! R ~. XXX.X).8.Q J z q J z J K K L P P P P P P P ) ) Z.u. X.X/.W.! _ } / / / ' g._._.[.`.`.`.|.`.",
"`.`.`.`.`.`.`.`.c.c.c.b.L.K.B.B.) H.&X.XoX.X/.^.! k ..-.o.} ( ) ) ]  .( ^  .o.-...! W. XXX2XU.B.) K / / / ^ g.k.c.c.`.`.[.[.[.[.",
"_._.[.[.}.}.|.|.L.-XK.K.J.N.3.B.B.C.Z.^..XoX X{.8.! 8XVXNXnXxX5X7X7X7XY.7XVXFXCXmXQ.).XX.X].H.C.Z.) L ^ Q D.&X[.|.|.|.[.[.`.`.`.",
"[.}.[.[.$X-X-XP.P.J.N.1.2.3.0.a.g.g.e.y.~. XXX).E.u.6XVXFXDXNXI.m.q C.eXDXGXGXDX9X(. X.X{.^.'.k.D.k.h.g.k.-X;X=X|.=X=X[.`.z.`.`.",
"}.c.p.V.V.V.V.J.n.n.;.0 Z 6.7.a.k.$Xi.w.T 8.E.E.E.!.A.6XFXFXAXJ.>.9 M.Y.FXGXFXNXQ.(.).T.s.a.'.'.'.k.f.y.y.k._.`.`.`.}.`.z.`.`.[.",
"[.&X>XY.I.m.m.>.:.:.0 4 u r G h.'.'.r.6.H Y 8.T.R.E.8.A.6X5X>X'.].*X&X&XZXZXNX+XT.T.T.Y S 6.d.'.k.g.r.W e.f.f.d.z.`.[.`.}.|.|.|.",
"_.1XqXY.N.,.<.<.;.0 s s u i H k.'.f.7.S M A 8. X X/.^.s.Q R.XXlXeXeXjXrX3X2X^.^.). XE.Y i u D y.f.h.r.T e.h.k.k.v._.[.}.|.|.|.|.",
"c.&XqXnXY.n.;.8 0 s D a u a 5.f.g.e.D s i a d  XXX)./.!.!.).oXlXkXNXkXrXoX{.{. XXXoX).Y u 2 h F e.k.'.h.r.r.k.v.f.f._.[.`.`.[.[.",
"`.$X<XqXMXU.m.0 q 6.5.A u D a.k.e.C i e e a T. XoX.X{.!.^.~./.@XeXNXqX{.^.].*X.XoXXX X!.A.Q C G G g.'.'.g.r.k.k.a.0.q.z.z.q.z.[.",
"[.=X%X&X,XqX>XD.g.r.7.H H r.d.r.G N L Q u.~. XXXoXXX).~.^././.OX6XNX9XOXOX*X2X2X.X*X,XeXkXjX1XD.6.6.a.'.'.k.a.r.r.a._.[.[.=X=X[.",
"_.`.[.c._.`.b.j.k.D.j.f.j.a.T B D g.,XwXeX1X&X{.2X4X4XwXwXwX4X,X9XmX8X,XeXZXSXkXeX&Xj.g.-X1X%Xl.6.D H r.k.k.k.k.^.k.L.%X_.z.`.`.",
"c.[.[.[.[.}._.f.'.'.'.k.r.H M M D i._.].$Xg.a.f.*X4XjXkXkXkXkX0X8XmX6XD.>XjXkXjXjX:Xv.i.j.$X[.v.d.a.7.H F T a.v.$Xv.^.[.[.`.`.`.",
"|.=X=X=X=X=X'.v.].$X'.'.y.F M 5.j.[.%X[.d.p.l.v.;XdXdX1XaXfXfX1XqXmX5Xr.d.;XpXpX-Xb.j.i.v.;XdX:X=X=X[.e.G C r.'.'.'.v.j.[.[.`.[.",
"|.=X|.|.}.`.c.j.'.$X'.h.e.B S d.[.;XgXfXpXx.p.d.'.$X|.%X%X|.-X>X7XmXF.i.i.b.;X;X|.'.j.c.;XdXdXsX:X;X%Xj.D A r.v.'.'.'.j.^.c.z.|.",
"|.|.}.[.[.c.v.k.'.'.'.a.T A D d.L.-X1XwX<XP.D.d.^.=X:XpX;X|.-X<XqXmX>Xa.[.pXgXgXgXaX|.d.'.:X:XsXdXdX;Xd.S M r.v.'.$X'.^.v.c.c.|.",
"|.}.[.[.`.v.'.'.&X].'.y.S A D 6.F.U.BXBXBXBXBXBXnX0XfXgXgXgXgXeXqX9XA.8.`.pXpXdX*X!.U t V u.:XdXhXhXaXf.S i 6.j.$X].'.'.'.[.=X[.",
"}.[.`.`.`.k.^.'.'.'.'.6.s A H [ U.xXnXBXvXBXBXBXBXBX7X&X;X{.:XqX8X-.O.y y y U V t * * * w Y $XaXgXhXdX%XD u A 7.^.$X$X'.v.v.[.[.",
"`.`.`.`.c.k.'.$X[.v.a.D e N ^ o.zXcXcXcXcXcXvXvXcXxX_ g * x E -.6X&.O.= * * w w t t V Y r.y.y.$XsXhXfX:Xw.h i D d.'.'.'.'.'.'.[.",
"c.`.`.`.'.'.j.v.j.i.6.u 2 L G.6XU.X.X.X.X.zXcXvXvXcX| J a K o.6X+X+.d Y U a C w.g.y.y.r.w.6.e.D.:XaXdX:Xg.C u s 7.c.'.'.'.f._.[.",
"[.|.|.=X'.g.e.5.6.S m e m w.F.bXzXzXzXcXzXzXzXzXzXU.F.Q u.5X8X6X{ t.a.j.7.S e B T w.w.e.e.e.r.r.u.u.OX[.v.r.M u S 9.v.'.'.f.c._.",
"[.`.c._.c.r.H H F A m M D p.>XqXbXxXvXvXcXzXcXvXvXzXF.A.5XmXbX..W g.'.'.a.S 2 m H k.`.'.'.k.a.u.' Q u.v.`.f.H a i D a.k.k.c.`.`.",
"`.g.W e.g.d.r.H F N e S d.}.%X5XmXMXbXcXcXcXxXxXzXU.7XbXVX8X .L T k.'.'.v.7.B i T g.h.t.W T G P [ [ A.d._.c.7.s e r D 9.k.|.|.|.",
"t.Y v @.%.~.^.d.r.H V W $X:X;Xk.G.8XMXVXVXMXVXMXVXVXVXMXG.' C M T h.'.$X'.j.w.T H w.w.G F T 5.t.{  .{ OX%X[.f.D r a T f.[.|.|.|.",
"k v @.&.=.*.R.s.h.R.Q.Q.^.].[.a.r.Z.G.bXbXmXMXMXMXbX..^ N h e h C y.k.'.'.s.y.w.G G H H e.f.v.D.A.....D.'.[.v.!.%.#.T._.[.`.`.[.",
"g b &.&.*.*.*.Q.W.Q.rXXX/.q.0.f.c.j.a.L L L I I I I F C m e e e M G e.e.G C F S H H 6.a.j.'.$X^.D.{ ..u.^.[.'.*XrX(.R.!.z.q.q.[.",
"E ! %.&.*.*.*.*.%.@X3XtX#X*X%X_.[.[.v.j.k.j.v.v.f.i.D p e 2 e M T k.`.k.e.H M A H 7.d.'.'.$X^.'.k.!.#.%.~.$X&X2XrXrX(.x.x.&X1X:X",
"c.^.!.W.%.%.*.*.=.=.tXuXyXtX2X*Xc.v.f.^.'.].'.'.a.6.p e u p 6.a.c.`.`.c.l.9.A A 6.a.`.'.'.$X$Xk.g.s.W.%.%.~./.3XyXyXtXg.4.L.jXSX",
"c.[.[.[.].'.!.W.-.#XyXiXiXuXtX@X!.h.k.L.'.$X'.^.9.D u u A 7.c.`._.[.[.[.[.v.0.D D i.k.'.'.].$Xk.y.y.8.@.E R OX3XiXiXiXtX3X^.&X%X",
"%X=X=X=X|.$X!.W.=.@XyXiXuX-.c l k C y.^.$X[.'.v.7.A u m w.f.c.[.|.=X=X=X=X=X|.9.6.5.a.'.$X'.'.k.h.k.t.j 1 , 3 q t.,XuXtX#X]._.[.",
"|.=X|.|.].!.#.@.#.%.(.@X@Xv & & & f K r.^.$X'.d.6.i i A r.q.c.|.|.=X|.|.}.[.c.0.5.A 6.k.'.'.k.k.k.r.Z 7 > > > > > q T Q.Q.E.z.}.",
"|.|.|.[.`._.s.T.!.!.Q.(.=.b f 5 & & 5 z W g.j.e.s u B 6.f._.`.|.|.|.}.[.`.`.z.q.9.p u S 6.6.r.g.4.2.:.;.8 3 > > > > 1 A y.^.`.|.",
"|.}.[.[.[.`.c._.=X[.].{.Q.! K k f & 6 5 l k C M M B r.'.|.|.|.[.|.[.[.[.[.`.`.`.c.A e e F r.'.p.4.>.<.<.<.,.8 3 > > 7 3.d.|.|.[.",
"[.[.`.`.`.`.c.c.`.c.[.`.z.a.Q V f - - & 5 f f t Y r.c.`.c.`.|.[.}.[.`.`.`._.c.`.c.6.A p 6.v.'.v.S.>.,.<.<.<.<.;.3 7 q 9.d.`.|.[.",
"`.`.`.`.`.`.`.[._.z.`.`.[.c.s.! c ; - - - g b @.#.#.f.`.[.[.[.[.`.`.`.`.`.`.[.`.c.q.6.B T a.v.k.x.3.1.<.<.<.<.:.1.3.d.c.}.[.}.[.",
"`.c.[.[.|.|.|.|.|.|.|.[.`.c.u.! +.: : - f f y b +.$.Q.~._._.`.`.c.`.`.[.[.|.|.|.|.|.a.A s D a.f.v.v.p.4.1.>.>.2.p.c.|.}.`.`.`.`.",
"[.}.[.|.|.;X;X|.|.|.;X}.c.c.s.E c : ; x V m t x x b +.$.#.!.c._.[.}.}.|.=X;X=X;X|.=Xv.H i i A 5.a.d.j.r.w.w.r.j.|.=X=X}.c.c.c.`.",
"}.[.`.`.[.[.}.[.`.`.}.`.c.c.s.! +.c : x h r e r t v b +.$.#.u._.[.[.`.`.[.[.[.[._.[.`.0.D i u e u m M F F H d.v.c.`.}.c.c.`.[.[.",
"[.`.`.`.`.`._.z.c.`.`.`.`.$Xk.u.n c : ; w e u B 5.y.R @.@.n E Z.f.v.c.`._.`.c.z.z.`.`.`.c.a.7.C 2 < < < < 2 5.c.z.`.`.`.}.}.|.|.",
"`.`.}.|.|.|.[.`.[.[.}.|.=X[.'.s.v c : ; g h A 7.c.].[.^.R Q ]  .{ t.j.|.=X=X[.`.}.[.[.|.|.}.|.a.m # .   X < w.c.[.[.}.}.}.|.|.|.",
"z.z.[.}.|.|.[.`.[.`.`.[.[.`.v.f.V g ; - - v r.c.`.`.`.[.'.f.y.[ ^ z K e.`.|.[.`.[.`.`.[.[.c.`.7.2 O     o < 6.c.[.`.`.}.[.c.[.[.",
"[.[.}.[.|.}.[.|.z.q.z.z.z.q.q.a.N # o o o < G k.q.q.z.z.c.q.q.a.T f l K t.k.[.}.z.q.z.z.z.0.5.h o     . @ j r.%Xz.q.z.z.z.q.z.[.",
"}.|.|.[.}.}.}.[.[.`.}.}.[.=X|.r.j O . . . # N a.[.`.[.|.[.;X=X`.k.y.W K z C y.v.|.`.[.|.[.'.t.< X . . + 5 K f.`.[.`.|.}.}.=X;X`.",
"`.`.`._.z.`._.z.c.}.;X=X`.c.c.a.N # o X o & V r._.|.;X=X`.z.`.`._.`.c.a.C V T 9.c.[.;X=Xc.6.j @ X X X @ r 6.q.z._.}.;X|.`.z.`.[.",
"`.`.}.[.}.}.[.z.}.|.|.|.[.`.c.a.j @ + . o % z [ OX|.|.|.}.`._.[.`.[.[.`.c.j.a.c.[.|.=X'.t.j % + X X o & K a.'._.}.|.|.|.}.`._.[.",
"|.|.=X=X=X|.}.}.|.[.z.z.|.[.d.T 5 + + + + & 6 J t.d.q.z.}.[.`.[.|.|.=X=X=X=X=X`.=X`.i.Q ^ z l 6 & % & ~ [ D.$X[.}.[.z.z.}.[.`.[.",
"|.|.|.|.}.`.c.z.z.c.q.l._.z.q.W j & 6 ~ ~ ~ ~ 6 & 2 G 9._.z.`.}.|.=X|.|.[.`.c.c.c.c.T j f & l ~ ~ ~ 6 l P h.f.z.z._.z.z._.z._.}.",
"|.|.|.|.[.`.c.z.`.[.[.[.[.`.f.r.K 6 & % + + + o X $ G j.`.`.`.}.|.|.}.[.[._.c.z.`.[.r.N & + + @ & l 6 & N 0.q.z.`.[.[.}.`.`.`.}.",
"|.}.[.[.[.`.`.`.|.|.=X=X|.=X%Xg.K 5 + o . . o O # j r.=X|.|.|.[.|.}.}.[.[.[.`.`.|.|.k.H j < $ @ + @ % $ F f._.`.|.|.|.|.|.|.|.}.",
"}.[.`.`.`.c.`.c.`.`.[.`.c.`.=Xc.r.C h < < 5 r B T e.c.[.z.[.|.[.}.[.`.`.c.c.c.c.`.v.[.c.q.a.t.F C G G F 7.z.z.`.`.`.}.`._.`.|.[."
};
