/* XPM */
static char *result[] = {
/* columns rows colors chars-per-pixel */
"64 64 221 2 ",
"   c #010201",
".  c #090705",
"X  c #040806",
"o  c #0A0B05",
"O  c #060609",
"+  c #030C0A",
"@  c #0B0A0B",
"#  c #110C07",
"$  c #120E0B",
"%  c #0E1206",
"&  c #04130F",
"*  c #16120C",
"=  c #1A130D",
"-  c #141A08",
";  c #161C0A",
":  c #0C0D14",
">  c #041B14",
",  c #0F101A",
"<  c #1A1412",
"1  c #1A1612",
"2  c #12131D",
"3  c #251C16",
"4  c #1C240C",
"5  c #1F280E",
"6  c #042319",
"7  c #0A261C",
"8  c #09281E",
"9  c #18281C",
"0  c #212C0E",
"q  c #2B221A",
"w  c #33261B",
"e  c #2A3810",
"r  c #2C3A13",
"t  c #171927",
"y  c #1D1F32",
"u  c #092E22",
"i  c #182C2E",
"p  c #0A3427",
"a  c #2C2322",
"s  c #342A23",
"d  c #3B3126",
"f  c #24263B",
"g  c #293D31",
"h  c #453529",
"j  c #4B3730",
"k  c #533C39",
"l  c #334316",
"z  c #374718",
"x  c #3D5018",
"c  c #04412E",
"v  c #0A4C37",
"b  c #134A38",
"n  c #24463B",
"m  c #43571C",
"M  c #4A611F",
"N  c #58422E",
"B  c #584837",
"V  c #614838",
"C  c #74563D",
"Z  c #4D6323",
"A  c #526A23",
"S  c #5A7527",
"D  c #617F29",
"F  c #2A2D46",
"G  c #2E3047",
"H  c #2E314C",
"J  c #2F324E",
"K  c #363958",
"L  c #393E63",
"P  c #155B45",
"I  c #2C5649",
"U  c #076748",
"Y  c #17654C",
"T  c #1A6D53",
"R  c #097A55",
"E  c #1B7257",
"W  c #34705A",
"Q  c #3C4165",
"!  c #1D7E60",
"~  c #3D7664",
"^  c #574443",
"/  c #664946",
"(  c #6A5647",
")  c #775849",
"_  c #775752",
"`  c #7A654F",
"'  c #45496D",
"]  c #464B77",
"[  c #4F537C",
"{  c #6A7468",
"}  c #835B56",
"|  c #8B6749",
" . c #8E6F58",
".. c #9A7454",
"X. c #A87C58",
"o. c #957A65",
"O. c #92706D",
"+. c #AA7973",
"@. c #66852C",
"#. c #68892B",
"$. c #698A2B",
"%. c #6E912D",
"&. c #769E2B",
"*. c #6B8931",
"=. c #699139",
"-. c #769A32",
";. c #769935",
":. c #79A12E",
">. c #7DA532",
",. c #7EA339",
"<. c #09835C",
"1. c #139169",
"2. c #218B6A",
"3. c #22916E",
"4. c #249975",
"5. c #0BA574",
"6. c #0CAF7B",
"7. c #15AA79",
"8. c #0CB17C",
"9. c #27A67D",
"0. c #3BA97F",
"q. c #488D77",
"w. c #51C178",
"e. c #81A936",
"r. c #82A839",
"t. c #85AD3A",
"y. c #89B13E",
"u. c #979955",
"i. c #B3845E",
"p. c #96AD4A",
"a. c #8CB441",
"s. c #90B845",
"d. c #96866C",
"f. c #B38871",
"g. c #B69675",
"h. c #C79469",
"j. c #CD986C",
"k. c #C4A27F",
"l. c #DAA273",
"z. c #E7AC7A",
"x. c #EEB17D",
"c. c #F1B37E",
"v. c #4D5385",
"b. c #555A8A",
"n. c #555C93",
"m. c #5C608F",
"M. c #5C6297",
"N. c #63679A",
"B. c #5E66A3",
"V. c #696EA4",
"C. c #646BAC",
"Z. c #6C71AB",
"A. c #676FB2",
"S. c #6971B4",
"D. c #757BBA",
"F. c #767CB9",
"G. c #17B885",
"H. c #29AC83",
"J. c #2BB98C",
"K. c #33B589",
"L. c #6A9097",
"P. c #51A483",
"I. c #5BBB98",
"U. c #67AA8B",
"Y. c #27C694",
"T. c #2DC293",
"R. c #2ECD9B",
"E. c #30CD9C",
"W. c #3CCC9E",
"Q. c #2FD19E",
"!. c #31D09E",
"~. c #31D2A0",
"^. c #4FC59B",
"/. c #4FCBA2",
"(. c #65C6A6",
"). c #6EC5A3",
"_. c #6CD6B4",
"`. c #6EDCBA",
"'. c #71E0BD",
"]. c #7D83C3",
"[. c #7F85C8",
"{. c #939C87",
"}. c #B28D87",
"|. c #8BB49D",
" X c #A7A591",
".X c #A7BDAA",
"XX c #CA8C84",
"oX c #C6988C",
"OX c #D6948C",
"+X c #D9958D",
"@X c #D8988F",
"#X c #C79B98",
"$X c #DB9B94",
"%X c #CEA58E",
"&X c #D1AD87",
"*X c #D8B38C",
"=X c #E6B88B",
"-X c #F8B983",
";X c #FEBD86",
":X c #E2BC92",
">X c #DBAAA6",
",X c #DBABA7",
"<X c #CAB9AE",
"1X c #E2AAA5",
"2X c #E4B1AD",
"3X c #E6B5B1",
"4X c #E9B5B1",
"5X c #ECB8B4",
"6X c #8FC8AE",
"7X c #ADC0AD",
"8X c #ACC9B6",
"9X c #AFCBB8",
"0X c #FFC18A",
"qX c #EBC398",
"wX c #FAC695",
"eX c #F3C99D",
"rX c #F9CEA1",
"tX c #FED3A5",
"yX c #FFD8A9",
"uX c #8086C9",
"iX c #8288CC",
/* pixels */
"e.e.e.e.e.>.e.t.>.>.e.e.t.t.t.t.e.e.e.e.>.e.e.r.>.>.-.A r 4 o     o ; l S -.e.t.>.>.,.e.t.t.t.y.>.t.e.e.>.e.e.t.>.>.e.e.t.t.t.t.",
">.>.t.t.y.y.y.y.y.y.y.t.e.e.e.e.>.e.t.t.t.y.a.a.;.Z 4 .   @ 3 3 3 < #   . 4 Z ;.t.a.y.t.t.>.>.t.>.>.e.t.t.y.y.y.y.y.y.t.e.e.e.t.",
"t.t.t.a.a.s.s.s.y.s.a.t.>.>.e.e.t.t.t.y.a.s.a.S 4   + c W +.f.XXXX+.+.} h @   4 S a.a.t.>.>.>.e.y.t.y.y.s.s.s.s.y.s.a.t.>.>.>.e.",
"t.t.e.e.e.t.t.t.>.t.t.e.>.e.t.e.t.t.e.t.t.r.l   + b 4.E.I.@X+XOX+X+X+X$X,X}.B @   l ;.t.>.>.t.t.t.t.e.e.e.t.t.e.>.t.t.>.>.e.t.t.",
"t.e.e.e.e.e.>.:.:.e.e.e.t.y.y.y.t.e.e.>.>.,.9 u 3.R.E.R.I.@XOXOXOXOX+X2X4X5X2X+.a   4 $.t.y.y.y.t.e.e.>.t.e.>.>.>.e.e.e.e.y.y.y.",
">.t.t.y.a.y.t.e.t.t.y.y.y.y.y.y.>.e.t.;.=.w.J.J.E.E.E.R.I.OXOXOXOXOX>X4X4X4X3X5X#X^   ; $.y.y.y.>.e.t.y.a.y.t.e.t.t.t.y.y.y.y.y.",
">.>.t.y.y.y.t.e.t.e.e.t.t.>.e.t.>.>.#.; 8 J.!.R.E.E.E.R.^.oX@XOXOX+X2X4X4X3X3X3X5X,X/ O ; #.e.t.>.>.e.y.y.y.t.e.t.e.e.t.t.>.e.t.",
"e.t.t.t.t.y.t.y.:.&.:.:.:.&.:.t.t.%.4   Y E.E.E.E.E.E.E.R. XOX@XOX1X3X4X4X4X3X3X3X3X2X/   4 #.r.t.t.t.t.t.y.t.y.:.:.:.:.:.:.:.t.",
"t.y.y.t.t.y.y.e.t.e.t.y.t.s.s.e.t.r   b T.E.E.E.E.E.E.E.!.^.}.+X+X2X4X4X4X4X4X4X4X4X4X,XB   r >.t.y.y.t.t.y.y.t.t.e.t.t.t.y.s.e.",
">.t.e.>.>.e.>.:.>.y.s.s.e.:.e.e.m   u J.!.E.E.E.E.E.E.E.!.!.I. X>X4X4X4X4X4X4X4X4X4X4X5X$Xd . Z >.e.e.>.>.>.>.:.>.t.s.s.e.>.>.t.",
"e.t.t.t.t.t.e.e.y.y.y.y.y.e.>.$.% & 4.!.E.E.E.E.E.E.E.E.E.E.R./.6X.X8X8X8X9X8X9X8X8X8X8X9XL.& % $.t.t.t.t.y.e.>.t.y.y.y.y.e.e.e.",
"y.y.a.a.a.a.y.t.y.e.:.:.y.t.>.l   Y E.E.E.E.!.!.!.E.!.E.E.E.R./.'.`.`.`.`.`.'.'.'.'.`.`.`.`.W   l y.s.y.s.y.y.t.y.t.:.>.y.t.e.t.",
"y.a.a.y.y.e.>.:.>.>.&.&.>.>.S X 7 J.!.R.T.J.9.4.2.E Y b b b b b I g I I I W ~ q.P.I.(._._.'.(.i o *.y.y.t.t.>.:.:.>.:.:.>.>.>.t.",
"y.y.y.t.e.e.>.:.e.t.t.t.t.>.e   P 2.Y b 8 > +                 X O O O             O 7 i n ~ P.I   r t.t.t.e.>.:.e.t.t.t.t.>.e.y.",
"y.t.t.t.t.e.e.e.y.y.a.a.,.Z o   X       + > 8 c v U U R <.<.3.4.4.4.4.3.2.! E P b p 2 &     . +   o Z >.e.e.e.e.y.y.y.s.y.y.y.y.",
"t.t.e.e.e.e.>.>.>.e.t.D 4   . $ w k _ ! 1.5.6.8.8.8.8.8.8.8.Y.E.Q.Q.~.~.R.!.!.!.E.T.T.H.3.E b p >     0 #.e.>.>.>.e.t.t.>.e.y.e.",
"e.e.e.e.e.e.e.e.>.>.D * . h  .+.OX+XoXK.6.6.6.6.6.6.6.6.6.8.R.E.E.E.R.R.E.E.R.E.E.E.Q.!.!.!.Q.T.H.2.p X ; $.t.r.>.>.>.t.t.t.t.t.",
">.e.e.t.y.y.y.y.a.t.e   / XX+X+X+X+XXX0.6.6.6.6.8.6.6.6.8.G.E.R.E.E.R.R.R.R.R.R.R.R.R.R.R.R.R.R.R.Q.J.P   l t.a.t.y.a.t.e.>.e.t.",
"t.t.y.y.s.s.s.s.a.*.o 3 XX+XOXOXOX+XoXH.6.6.6.6.6.6.6.6.8.Y.R.R.E.R.T./.(.).).).).).).).).).).).).).(.U.9 @ ;.a.a.a.a.t.>.>.>.>.",
"t.t.e.e.e.t.t.e.>.A   / +XOXOXOXOX+X{.7.6.6.6.6.6.6.6.6.8.Y.R.R.E.W.6X<X3X4X3X3X3X3X3X3X3X3X3X3X3X3X3X5X/   S t.>.t.t.e.>.e.t.t.",
"t.t.>.e.e.e.>.:.>.Z   ) +X+XOX+X@X}.0.6.6.6.6.6.8.6.6.6.8.Y.E.R.W..X5X4X4X4X4X4X3X4X4X3X4X4X3X4X3X5X4X3X_   A :.>.e.e.e.t.y.y.y.",
"e.e.t.y.a.y.t.e.t.S   k +X+X+X+X}.P.6.6.6.6.6.6.6.8.6.6.G.R.!.Q.).5X4X5X4X4X4X4X3X4X4X4X4X3X4X4X3X3X4X3Xj X D e.t.t.t.y.y.y.a.y.",
":.>.t.y.y.y.t.t.,.%.% 1 d.{.{.P.9.8.6.8.8.8.G.6.6.5.5.5.5.H.9.H.{.#X#X#X>X,X2X3X5X4X4X4X4X4X3X3X4X3X5X#X2 ; ;.e.t.e.e.t.t.>.e.t.",
"e.t.t.t.t.y.t.y.&.&.e X R 8.6.6.8.8.6.5.1.<.U v c u 6 > & & + + @ : * 3 3 f d ^ _ O.}.#X,X4X4X3X4X4X5XO.  z y.y.:.&.:.:.:.&.&.t.",
"t.y.y.t.y.y.y.t.t.e.A   c 8.6.5.1.U c 6 +       . # = < q w d h h s s 3 3 $ @         * s ^ O.}.>X3X3Xk X S y.t.t.e.y.y.t.a.s.e.",
"e.e.e.>.>.e.:.:.>.y.;.% > U c > X   . $ w N C ..i.h.l.z.=XeXeXeXeXeXeX:X:X*X%Xg.o.` B q *     @ 3 ^ O.< % %.>.:.>.y.s.a.e.:.e.t.",
"e.t.t.t.t.t.e.>.;.m 4         = h C i.j.x.-X0X0X0X;X-X;XwXtXtXtXtXtXtXtXtXtXtXyXyXyXtXeX&Xf.` d *       X 5 m %.t.y.y.y.t.e.>.e.",
"y.y.s.y.a.a.y.#.4   $ .   . | z.c.0X0X0X;Xc...| i.z.-X;X0XtXtXtXtXtXtXtXtXtX*Xg. .o.eXtXyXyXtXeX*X` .   o %   4 *.t.:.:.y.y.e.t.",
"y.y.y.y.y.t.%.; . V i.3     N x.0X0Xc.0X0Xl.*     q l.0X0XtXtXtXtXtXtXtXtX*Xq .   1 *XtXtXtXtXtX:Xj     d g./ o 4 %.&.&.>.:.>.t.",
"y.y.t.t.e.e.x   V -Xl.*       j l.0X0X0X0Xc.i.* . N x.0X0XtXtXtXrXtXtXtXtXqXB . = d.eXtXtXtXtX&Xj       q :XeXB   m t.t.t.e.e.y.",
"y.t.t.t.t.>.4 $ h.0Xh..   O ,   w X.x.c.0X0Xz.q 3 z.0Xc.wXtXtXtXtXtXtXtXtXtXqXq q qXtXyXtXqXo.3   t     * *XtX&X$ 4 r.a.y.y.y.y.",
"y.t.t.e.e.%.% w c.0Xi.      K F . . h ..l.c.c.N N c.0X;X0XtXtXeXeXtXtXtXtXtXeXB B eXeX*X .d . @ K K     o &XtXeXs % -.t.>.e.y.t.",
"e.e.e.e.e.%.% w x.;Xi.  ,   t n.] y O   = h V | ..h.j.l.l.=X&XB N &X:X*X*X&Xk.d.| ( d *   O f m.Z.2 o : @ &XyXqXq % %.,.t.y.t.t.",
">.e.e.t.y.r.0 # h.;Xh.  y F   H A.C.] F , O     . . . * 1 1 =     * 1 = = % . .     + t K M.].uXG   J t * &XyXk.@ 0 t.t.e.>.e.e.",
"t.y.t.y.a.s.Z   h z.z.3 , v.2 O K A.S.A.B.b.' K F f y t t ,         t t t f f K ' b.V.F.iXiXuXQ   y n.@ s eXqXN   Z a.y.>.>.>.e.",
"t.t.e.e.t.t.-.0   h X.d   ] v.: O n.A.A.A.A.S.S.C.C.C.C.C.C.J y y J F.].uXuXuXiXiXiXiXiXiXiXN.O 2 V.'   B g.h   0 :.t.,.>.e.t.t.",
"t.e.e.e.t.t.>.#.0   . .   y C.v.L B.S.A.A.A.A.A.A.A.A.A.A.C.F.].uX].uXiXuXiXiXiXiXiXiXuXiXiXF.' V.D.t   # .   0 $.e.e.e.t.y.y.y.",
"e.e.t.y.a.y.t.e.e.A r 0 %   ' S.A.A.A.A.A.A.A.A.A.A.A.A.C.F G ].].f G uXuXiXiXuXiXiXiXiXiXiXiXiXiX'   % 0 r A -.t.t.t.y.y.y.y.y.",
">.>.t.t.y.y.t.t.t.r.e.e.S   t M.S.A.A.A.A.A.A.A.A.S.A.A.B., t F.F.< 2 F.iXuXiXiXiXiXiXiXiXiXiXiXZ.2 o @.r.t.t.t.t.e.e.t.t.>.e.t.",
"e.t.t.t.t.t.t.y.&.&.&.&.&.e   H A.A.A.A.A.A.A.A.S.v.f f y O . f f . o f G G N.iXiXiXiXiXiXiXuX].G   m t.t.y.y.t.:.:.:.:.:.:.:.t.",
"t.y.y.t.t.y.t.t.t.e.y.t.t.-.- + ] S.A.A.A.A.A.A.S.L O O O                   ] iXiXiXiXiXiXiXiX[ X 5 >.t.t.y.y.t.t.>.y.y.t.s.y.t.",
"e.e.e.>.e.e.>.&.>.y.s.s.>.>.A X t n.S.A.A.A.A.A.S.B.v.v.] : : b.n.: < n.N.V.].uXiXiXiXiXiXiXV.2 % S e.>.>.>.>.:.>.y.s.y.>.>.>.t.",
"e.t.t.t.t.t.t.>.y.y.y.y.y.>.,.z   f B.A.A.A.A.A.A.S.S.S.B., , A.F.2 2 F.iXiXiXiXiXiXiXuXiXF.f   m e.t.t.t.t.e.>.y.y.y.y.y.>.>.t.",
"y.y.a.a.a.y.y.t.y.e.:.:.y.y.>.-.5 O K A.A.A.A.A.A.A.A.S.B., , C.D.2 t F.iXiXiXiXiXiXiXiX[.K   r ,.y.s.y.s.y.y.t.y.e.:.>.y.y.>.t.",
"a.a.y.y.y.e.>.:.>.>.:.:.>.,.>.t.*.% O ] S.S.A.A.A.A.A.A.B.H J A.D.K K uXiXiXiXiXuXiXiXiX] . 4 %.a.a.y.y.t.t.>.:.>.>.:.:.>.>.>.y.",
"y.y.t.t.t.e.>.:.e.t.t.t.t.>.>.y.a.S . : v.S.A.A.A.A.A.A.S.A.A.A.S.].uXiXiXiXiXuXiXiXiXm.@ % S t.y.y.y.t.t.>.>.:.>.t.t.y.t.>.>.y.",
"y.t.t.t.t.t.e.e.y.y.y.a.y.y.a.t.t.r.m   t B.S.A.A.A.A.A.A.A.A.A.S.F.iXiXiXiXiXiXiXiXV.2 . A a.t.y.t.t.t.t.t.e.t.y.y.y.y.y.y.y.y.",
"t.t.e.e.>.e.>.>.e.>.t.t.>.e.y.t.y.t.,.r   f B.S.A.A.A.A.A.A.A.A.A.S.[.iXiXuXiXiXiXF.f   x >.a.t.t.t.e.e.e.>.>.>.>.>.t.t.>.e.y.t.",
"t.e.e.e.e.e.e.t.:.>.e.t.t.t.t.t.e.e.e.M     J A.A.A.A.A.A.A.A.A.A.A.D.iXiXiXuXiX].G     A t.t.t.e.e.e.e.e.>.t.e.>.>.>.t.t.t.t.y.",
">.e.e.t.y.y.y.y.y.y.y.t.e.e.e.e.>.e.-.; . . O L A.A.A.A.A.A.A.A.A.A.A.].iXiXiXuXQ   + X 4 -.e.e.>.e.e.t.t.y.y.y.y.y.y.t.e.>.e.e.",
"t.t.t.y.y.s.s.s.y.a.a.t.e.:.e.e.t.y.$.o 3 } # O ] A.A.A.A.A.A.A.A.A.A.S.uXuXiX[ X > 2.7 o S >.e.t.t.y.y.s.s.s.s.y.s.s.t.>.>.>.e.",
"t.t.e.t.t.t.t.t.e.t.t.e.:.e.e.t.t.;.4   k OX}   2 b.S.A.A.A.A.A.A.A.A.A.D.iXn.: + 2.R.b   5 -.t.t.t.e.e.e.t.t.e.>.t.t.>.>.e.t.t.",
"t.e.e.e.e.e.:.:.:.e.t.e.t.y.y.y.r.D   = +.+XOX/   2 v.A.A.A.A.A.A.A.A.A.A.[ , X E !.!.9.> X @.y.t.e.e.e.e.e.>.>.>.>.e.e.t.y.y.y.",
"e.t.t.y.a.y.t.e.t.t.t.y.y.y.y.y.e.D .   j /  .XX/   O H n.C.A.S.S.S.C.n.F O X T E.3.Y b     @.y.>.t.t.y.s.y.t.e.t.t.t.y.y.y.y.y.",
":.:.t.y.y.y.t.t.t.e.e.t.t.e.t.t.&.e . = . . j OX{.Y &   O y K L L J y O   6 2.T.R.b     1 . e >.>.>.t.y.y.y.t.e.t.e.e.t.e.>.e.t.",
"t.t.t.t.t.y.t.y.:.&.:.:.&.&.:.t.S . w h.h   g 0.7.7.1.Y u           X u Y H.E.E.R.b   h k.d X S e.t.t.t.t.t.t.y.:.:.:.>.:.:.:.t.",
"t.y.y.t.t.y.y.t.t.e.y.t.t.s.y.e.e . ..0X..  v 6.6.8.G.E.J.4.! T E ! 4.J.!.!.E.E.Q.Y   d.yXf.; S t.y.y.t.t.y.y.e.t.e.y.y.t.y.s.e.",
">.t.e.>.e.e.:.:.:.y.s.s.e.:.e.$.o w x.0X|   U 8.6.8.Y.E.!.!.!.E.!.!.!.E.!.E.E.E.Q.E    .tXrX*Xp.e.e.e.e.>.e.>.:.>.t.s.y.e.>.>.t.",
"e.t.y.t.t.t.t.>.y.y.y.y.t.e.e.M   C ;X;X)   U 8.6.G.R.R.E.E.E.E.R.R.W.)..X.X.X.X7X{   ` tXtXrXu.:.t.y.t.t.t.e.>.y.y.y.y.y.>.>.t.",
"y.y.a.a.a.y.y.t.y.t.:.:.y.y.e.r . i.0X;XC   R 8.6.G.R.E.E.E.E.E.E.(.<X3X4X4X4X5X5X+.  ( tXyX&X1 x y.y.y.s.y.y.t.y.t.:.:.y.y.e.t.",
"y.y.y.y.t.t.>.:.>.>.&.:.e.:.&.4 = l.;X;XV   R 8.6.G.E.E.Q.E.!.R.^.<X5X4X4X4X4X4X5X}.  / tXyX*X* 5 t.a.a.t.t.>.:.>.>.:.:.>.>.>.t.",
"y.y.y.y.e.e.:.:.e.t.t.t.t.e.-.; 3 l.c.x.N   R 5.5.G.T.T.J.T.T.T.|.>X>X>X1X>X>X>X,X+.  B qXeX*Xq - ;.t.t.t.e.>.:.>.t.t.y.t.>.e.y.",
"y.t.t.t.e.t.e.e.y.y.y.a.y.y.;.o . q w w #   > 6 6 7 u 7 7 8 8 7 a a a a a a a a a 3   $ s s q o % -.t.t.t.e.e.e.y.y.y.y.y.y.y.y.",
"t.t.e.e.e.e.>.>.e.e.t.t.>.e.,.4                                                                 4 ;.t.>.e.>.>.>.e.e.t.t.>.e.y.e."
};
