/* XPM */
static char *result[] = {
/* columns rows colors chars-per-pixel */
"64 64 118 2 ",
"   c #010101",
".  c #060803",
"X  c #0A0A04",
"o  c #060708",
"O  c #070909",
"+  c #0A0C0D",
"@  c #0E1206",
"#  c #101507",
"$  c #131907",
"%  c #111608",
"&  c #151C09",
"*  c #0D0F10",
"=  c #0F1416",
"-  c #111516",
";  c #121618",
":  c #161A1C",
">  c #1A1E1F",
",  c #1C240C",
"<  c #1F280D",
"1  c #212B0E",
"2  c #25300F",
"3  c #2F2713",
"4  c #222B10",
"5  c #302714",
"6  c #342A15",
"7  c #263211",
"8  c #283512",
"9  c #2D3A13",
"0  c #171D20",
"q  c #1A1E20",
"w  c #1D2325",
"e  c #1F2628",
"r  c #1F2B30",
"t  c #202527",
"y  c #20272A",
"u  c #222A2D",
"i  c #252D31",
"p  c #263034",
"a  c #25333A",
"s  c #2C3539",
"d  c #2B393F",
"f  c #30383B",
"g  c #314112",
"h  c #344219",
"j  c #374819",
"k  c #3B4E19",
"l  c #3D5216",
"z  c #3E511C",
"x  c #40541A",
"c  c #475F1B",
"v  c #485F1B",
"b  c #4E6521",
"n  c #506724",
"m  c #536C24",
"M  c #597525",
"N  c #5C7926",
"B  c #58702A",
"V  c #607E2A",
"C  c #2B3B43",
"Z  c #313D42",
"A  c #364247",
"S  c #3A474C",
"D  c #3B494F",
"F  c #3D4B50",
"G  c #3A4F59",
"H  c #3A505A",
"J  c #3F5661",
"K  c #434E53",
"L  c #435157",
"P  c #45555C",
"I  c #47585F",
"U  c #4B595F",
"Y  c #475860",
"T  c #4A5B63",
"R  c #455E6B",
"E  c #4F626B",
"W  c #506167",
"Q  c #516269",
"!  c #58656B",
"~  c #536770",
"^  c #556972",
"/  c #5D6C72",
"(  c #5F737B",
")  c #606F75",
"_  c #607076",
"`  c #61757D",
"'  c #68797F",
"]  c #638524",
"[  c #668827",
"{  c #65832D",
"}  c #68872E",
"|  c #6B8D2C",
" . c #6E912E",
".. c #70942D",
"X. c #769E2B",
"o. c #6F9130",
"O. c #739533",
"+. c #769A33",
"@. c #799E34",
"#. c #779938",
"$. c #7A9C39",
"%. c #79A12E",
"&. c #7DA532",
"*. c #7EA33A",
"=. c #81A936",
"-. c #80A63A",
";. c #85AD3A",
":. c #89B13E",
">. c #9E8141",
",. c #BF9C4E",
"<. c #85AA40",
"1. c #8CB441",
"2. c #90B845",
"3. c #C09D4F",
"4. c #6D7E85",
"5. c #6E8087",
"6. c #6F8088",
"7. c #708188",
/* pixels */
"=.=.=.=.&.=.=.;.&.&.&.=.;.;.;.:.;.=.=.=.=.=.=.;.%.=.=.=.;.;.;.;.=.=.=.=.=.=.=.;.&.&.&.;.;.;.;.;.;.=.=.=.*.&.;.;.&.&.&.;.;.:.;.:.",
"&.&.;.;.:.:.:.:.:.:.:.:.=.=.=.=.%.=.=.;.:.:.:.:.:.:.:.;.=.=.=.=.=.=.=.;.;.:.:.:.;.1.1.;.;.&.&.;.&.&.;.;.;.1.:.*.*.1.:.:.&.&.;.&.",
";.;.;.1.1.2.2.1.:.1.1.;.&.&.&.=.;.;.:.:.:.2.2.2.:.:.:.:.=.&.=.=.;.;.:.:.:.2.2.:.1.1.1.&.X.&.&.=.;.;.;.:.2.<.B < 8 @.1.:.&.&.&.&.",
";.;.=.=.;.;.;.;.&.;.;.=.&.=.;.;.;.;.=.=.;.;.;.=.=.;.;.=.%.=.=.;.;.;.=.=.;.;.;.;.&.;.O.1 4 | ;.;.;.;.=.@.n ,   .   < o.&.&.&.;.;.",
";.=.=.=.=.=.&.%.%.&.=.=.;.:.:.:.;.=.=.=.;.=.%.%.%.=.=.=.;.:.:.:.;.=.=.=.;.;.=.%.&.| <     4 O.:.;.@.b ,     ; a ;   8 &.:.:.:.:.",
"=.;.;.:.1.1.;.=.:.;.:.:.:.:.:.:.=.=.;.:.:.:.:.=.;.:.;.:.:.:.:.:.=.=.;.:.:.:.;.=.*.7   - ;   4 O.@.8     = C J R a   < &.:.:.:.:.",
"%.&.=.:.:.;.;.=.;.=.=.;.;.&.=.;.%.=.;.:.:.:.;.=.;.=.=.;.;.=.=.;.%.=.;.:.:.:.;.=.*.,   Z T ;   4 c . O C J E J J =   b ;.;.&.&.:.",
";.;.;.;.;.:.:.:.%.X.%.%.%.X.%.;.=.;.;.;.;.:.:.:.%.X.%.%.%.X.%.=.;.=.;.;.;.;.:.:.%.l   e ~ Y :   .   r R E J R C   ,  .%.%.X.%.;.",
";.:.:.;.;.:.:.;.;.=.:.:.;.1.2.;.;.:.:.:.;.:.:.=.;.=.;.:.;.2.2.=.;.:.:.;.;.:.:.;.;.| @ + P ^ Y ;     C R E J J =   n ;.:.;.1.2.;.",
"&.=.;.&.&.=.%.%.%.:.2.1.=.%.=.=.=.;.=.%.&.=.=.%.&.:.2.1.=.%.=.=.=.=.=.&.&.=.%.%.&.;.h   s ^ Y ;     ; G R E d   , &.2.1.&.&.&.;.",
"=.;.;.;.;.:.;.&.:.:.:.:.:.=.&.;.=.;.:.;.;.:.;.%.:.:.:.:.:.=.=.=.=.:.;.;.;.:.=.&.;.1.m   = D :   ; ;   ; A r O   m 1.:.;.:.&.&.;.",
":.:.2.1.:.:.:.:.:.;.%.%.:.:.&.;.:.:.:.:.:.1.:.;.:.;.%.%.:.;.=.;.:.:.:.:.1.1.:.;.:...,     o   ; Y Y ;       . 9 *.;.X.&.:.:.&.;.",
":.:.:.:.;.;.%.%.&.%.%.%.%.%.%.:.:.:.1.:.:.;.=.%.%.&.%.X.&.&.%.:.:.:.:.:.:.;.=.%.| ,   : :   . D ^ Y ;   & k M  .&.&.%.X.&.&.&.;.",
":.:.:.:.;.=.%.%.=.;.;.:.;.=.;.:.:.:.:.;.=.=.%.%.=.;.;.:.;.=.=.:.:.:.:.;.=.=.%.[ <   : W L .   : F 0   <  .&.&.%.&.;.;.;.;.&.=.:.",
":.;.;.;.;.=.=.=.:.:.:.:.:.:.:.:.:.;.;.;.;.=.=.=.:.:.:.:.:.:.:.:.:.;.;.;.;.=...<   : W W 0   o   o   < O.;.;.&.;.:.:.1.1.:.1.1.;.",
":.;.=.=.=.=.&.&.=.=.;.;.%.=.:.;.;.;.=.=.=.=.&.&.=.=.;.;.&.=.:.=.:.;.=.=.=.| <   : W ` D   0 K :   X { ;.;.&.&.&.=.&.;.=.&.=.:.;.",
"=.=.=.=.=.=.=.;.&.&.=.=.;.;.;.:.&.=.=.=.=.&.;.=.&.&.=.=.;.;.;.;.;.&.=.=.| ,   : E ( ( / D W W ;   2 &.&.=.&.=.;.&.&.=.=.;.;.;.;.",
"&.&.;.;.;.:.:.:.:.:.:.:.;.&.=.;.&.&.=.;.:.:.:.:.:.:.:.;.=.=.=.=.&.&.;.O.4   : W W D ( ( ` W q   , | ;.;.:.:.:.:.:.:.:.;.=.=.=.=.",
":.;.;.:.:.2.2.:.:.1.1.;.&.&.&.&.:.;.;.:.1.2.2.1.:.1.1.;.=.&.&.=.;.;.O.4   : W W :   S ` E :     , O.;.1.1.2.2.2.:.1.1.;.&.&.=.=.",
";.;.=.=.;.;.;.;.&.;.;.=.&.=.;.;.:.;.=.%.&.;.;.;.=.=.;.=.&.=.;.;.;.O.<   : W ` D . : W W :   ; ;   <  .&.=.;.;.=.=.=.:.=.&.=.;.;.",
";.;.&.=.;.;.&.%.&.=.=.&.;.:.:.:.;.=. .1 4 | &.&.%.=.=.=.;.:.1.:.o.<   : W ` ( ^ D Q Q 0   : I Y ;   7 @.=.=.&.&.%.=.=.=.=.:.:.:.",
"=.=.;.:.:.:.;.=.;.;.:.:.:.1.:.:.&. .1     4 O.=.;.;.:.:.:.:.:.O.<   : W W D ( ( ( T :   : Y ~ Y ;   4 -.1.1.;.=.:.;.;.:.:.:.:.:.",
"%.&.;.:.:.:.;.;.;.&.;.;.;.&.=.;.| <   - ;   < | ;.=.=.;.;.=.| 1   : Q W >   D ` W :   ; I ~ I :     , O.:.:.;.=.;.=.;.;.;.&.=.;.",
"=.;.;.;.;.:.;.:.%.X.X.%.%.X.%. .<   : Y I :   1 [ X.X.&.X.] ,     : W D   : W W :     : I I :   = =   < O.;.;.:.%.X.%.%.%.X.%.;.",
";.:.:.;.;.:.:.=.;.=.:.;.:.1.#.<   ; I ~ ~ T ;   < | ;.:.O.1   : :   : T S Q Q :   , ,   : -   = H H ;   < O.;.;.;.=.:.:.;.1.1.;.",
"=.=.=.&.&.=.&.%.=.;.2.:.&.+.2   : I ^ ~ ~ ^ Y :   1 $.#.1   > / / q   : Q Q :   < O.$.4       = H R H ;   , | &.&.:.2.1.=.%.=.;.",
"=.:.;.;.:.:.=.&.:.:.:.:.;.@.& . F ^ E E ~ ~ ~ I :   < <   q / ' ' / >   : :   1 O.:.:.O.7 1 ,   ; H R H ;   < | ;.:.:.:.;.=.&.;.",
":.:.:.:.:.:.:.;.:.;.%.&.;.;.8   S Y 0 0 Y ~ ~ ^ Y ;     q / / w w ) / q     1 O.:.;.%.%.-.-.| <   = H E H =   < O.;.%.%.:.:.&.;.",
":.:.:.:.:.=.=.%.&.&.%.%.&.&.l   w :     : I ^ ~ Y ;   q / ) >     q ) T   & | X.&.&.%.%.&.&.&.O.4   ; G R G =   4 X.%.X.&.%.&.:.",
":.:.:.;.=.=.%.%.=.;.;.:.=.=.m       : :   ; Y Y :   q / / >   5 6   q f   9 &.X.=.;.;.;.;.&.=.:.O.4   ; G G =   . V ;.;.;.&.=.:.",
":.:.;.;.;.=.=.=.:.:.:.:.:.:.[ .   : T T :   - -   q / / q   6 3.>.X       b =.=.:.:.1.:.:.1.1.;.1.O.<   = =   .   z 1.1.:.:.:.:.",
":.;.=.=.=.=.&.=.=.=.;.=.&. .1   0 T e e T :     q / / q   6 3.3.6   X   . M &.&.=.&.;.;.&.=.<.;.;.-.o.<     o w   , &.;.%.=.:.;.",
"=.=.=.=.=.&.;.;.&.&.=.=.&.8   ; W / t y U :   > ! 4.t   5 3.3.6   6 >.6   ,  .;.&.&.&.;.;.;.;.;.=.=.=. .4 .       4 @.=.;.;.;.;.",
"&.&.;.;.:.:.:.:.:.1.:.;.&.1   : T Q W P :   > ) 7.! +   6 >.6   6 3.3.5     4 O.:.1.1.;.=.&.=.=.=.&.=.;.*.{ z , 8 #.1.;.=.=.=.=.",
";.:.;.:.1.2.2.1.:.1.1.;.*.| <   + + + +   q ) 4./ q   X   X   6 3.3.6   5 5   4 +.1.1.&.@.&.=.&.;.;.:.:.1.1.2.;.-.1.1.;.&.&.=.=.",
";.;.=.=.;.;.;.;.&.;.;.=.&.&.o.8 % X     : ) 4.! q   q U q   X >.3.6   6 3.>.X   , O.O.1 1 | ;.;.;.;.=.=.;.;.;.;.&.;.;.=.&.=.;.;.",
";.=.&.=.=.=.&.%.&.=.=.=.;.:.:.-.V &   > / 5.7.K   > / 7./ >   5 5   6 3.,.6   X   , ,     4 O.:.;.=.=.=.=.=.&.%.&.=.=.=.;.:.:.:.",
"&.;.:.:.1.:.;.=.;.;.;.:.:.:.1.O.1   : / 4./ K ' K / 4.4.5./ >     5 3.3.6   6 >.5     : :   4 O.=.;.;.:.1.:.;.=.;.;.;.:.:.:.:.:.",
"%.&.=.:.:.:.;.=.;.=.=.;.;.=.| 1     : / ) >   K 7.4.4.4.4.5./ >   5 >.6   6 3.3.3   q / / q   1 [ &.;.:.:.:.;.=.;.=.=.;.;.&.=.;.",
";.;.;.;.;.;.:.:.%.X.%.%.%.] ,   : :   : :   q / 4.4.4.4.4.5.5./ :   X   6 3.3.6   q / 6.4./ >   1  .;.;.;.:.;.:.%.X.%.%.%.X.%.;.",
";.:.:.;.;.:.:.;.;.;.;.:.O.4   : T W >     : / 4.4.4.' ) ) ) _ ! :     X >.3.6   > / 5.4.4.4./ q   4 O.;.:.:.:.;.;.=.:.:.;.1.1.;.",
"&.;.;.&.%.;.%.%.&.;.2.#.,   : W ` ` W :   : / 5.5./ t + * * * +   1 ,   5 3   q / 4.4.4.4.4.5./ q   < | %.=.%.%.&.:.2.1.=.%.&.;.",
"=.;.;.:.;.:.;.%.;.1.O.1   : W ( ( ( ( W :   q / / q   o o   X @ 1 O.O.,     q / 4.4.4.4.4.4.4.5./ :   7 =.:.;.%.;.:.:.:.;.=.=.;.",
":.:.:.:.:.:.:.:.1...,   : W ` ` ` ( ( T :     : :   : T y   x +.-.1.#.,   > / 6.4.4.4.4.4.4.4.5./ :   8 ;.:.:.:.:.;.%.%.:.:.&.;.",
"1.:.:.:.:.;.%.%.} <   : W ( / T F s w *   , ,     > W ` A   9 :.:.;.8   : / 6.4.4.4.4.4.4.4.4./ q   1 O.:.=.&.%.%.%.%.%.&.%.&.:.",
":.:.:.;.;.&.&.[ <   : E ` E q O         X [ | $   D ` ( U O & *.1.-.7   : / 4.4.4.4.4.4.4.5./ >   1 O.;.;.&.%.%.;.;.;.:.;.&.=.:.",
":.:.;.;.;.;. .1   : W ` W :     o i Z O # O.&.k   s ( ( ^ - . { :.;.O.4   > / 4.4.4.4.4.5./ >   1 O.;.;.;.;.=.;.:.:.:.:.:.:.:.:.",
";.;.=.=.&.| <   : T 4.W :   & . + T T + # ..&.N . ; ^ ( ( u   b ;.;.=.| 1   > / 5.4.4.5./ >   < O.;.=.;.=.&.&.%.=.=.:.;.%.=.:.;.",
"=.=.=.=.@.2   : W ` W :   1 N % + T Y + @ o.&.@.,   I ( ( A   9 ..&.=.=.| 1   q / 5.4./ >   1 ..&.=.=.=.=.=.=.;.&.&.&.=.;.;.;.;.",
"&.&.;.;.#.% + U ` W :   <  .O.% * Y T * % #.:.1.z   s ( ( I O . @ 8 *.;.:.O.1   q / / >   1 | =.&.=.;.;.;.:.:.:.:.:.1.;.=.=.=.;.",
";.;.:.:.*.% + Q W :   4 | &...# + T Y * % *.2.2.{ X ; ~ ( / y +   # #.:.1.2.#.1   : :   , | =.=.;.;.;.:.1.2.2.1.:.1.1.;.&.&.&.=.",
";.;.=.=...# = L :   , | &.&.+.% + T T + # +.-.;...& o P ` ^ K w   # ..=.;.;.;...,     < | =.;.;.;.;.=.=.;.;.;.=.&.;.;.=.&.=.;.;.",
";.=.=.=...# o =     % N ;.:.#.% + T Y + @ O.&.&.=.k   e s - o   . 8 &.&.=.=.=.%.| 1 2 ..;.:.:.:.;.;.=.&.;.=.&.&.&.=.;.=.;.:.:.:.",
"=.=.;.:.*.#     ; w   X b :.$.% * T T * % @.;.&.=.V X     . , z N @.;.1.:.:.;.=.;.*.*.:.:.:.:.:.=.=.;.1.1.:.;.=.;.;.;.:.:.:.:.:.",
"%.&.;.:.#.%   = Y E p . . l | @ + Y T + % @.;.;.;.@.9 & k N @.;.&.&.;.;.:.:.;.=.;.=.=.;.;.&.=.;.&.&.;.;.:.:.;.;.;.=.=.;.;.=.=.;.",
";.;.;.;.&.8   + A Q ~ C O   < X * T Y * # +.;.:.X.X...X.X.X.%.=.;.;.;.;.;.:.:.;.%.X.%.%.%.X.%.;.=.;.;.;.;.;.:.;.X.X.X.%.%.X.%.=.",
";.1.1.;.;.&.j .   i T ^ D =     q E L O # #.:.=.;.=.;.:.;.1.1.=.;.;.:.;.;.:.:.;.;.;.;.:.:.:.:.;.;.:.:.;.:.:.:.;.;.=.;.:.;.2.1.=.",
"&.&.;.&.&.&.%.v @   : L ^ L : : Y Y :   4 &.&.X.&.:.2.1.=.&.=.;.&.;.=.&.&.=.&.X.&.;.2.:.;.%.=.=.&.=.;.&.&.=.%.%.&.:.2.2.=.%.=.;.",
"&.;.;.;.;.;.;.&.{ <   + C E E Q I ;   1 O.;.;.&.:.:.:.:.:.=.&.=.=.;.;.;.;.;.;.&.:.:.:.:.:.=.=.=.=.;.;.;.;.:.;.%.:.:.:.:.:.=.=.=.",
":.1.1.1.1.1.:.;.1.+.g   o i Y P :   4 #.1.1.:.;.:.;.%.%.:.;.=.;.;.1.1.1.1.:.:.;.:.;.%.%.:.;.=.;.:.:.2.1.:.:.:.:.:.=.%.%.:.;.=.;.",
"1.1.1.;.;.;.&.%.&.%...c @   + .   4 +.1.;.;.&.%.%.&.%.%.&.%.&.:.1.1.1.:.:.=.&.%.%.%.%.X.=.%.%.:.:.:.:.:.:.=.&.%.&.%.%.X.&.%.&.:.",
";.1.;.;.;.&.%.%.&.;.:.;.{ 1 # # 8 O.;.;.;.=.&.%.=.;.;.;.;.=.=.:.:.:.;.;.;.=.&.%.=.;.:.:.;.=.=.:.:.:.:.:.=.=.%.%.=.;.;.:.=.=.=.:.",
";.;.;.;.;.;.&.;.:.:.1.1.1.-.$.+.&.;.;.;.;.=.=.=.:.:.:.1.:.1.:.;.:.;.;.;.;.=.=.=.:.:.:.:.:.:.:.;.:.;.;.;.;.=.=.=.:.:.:.1.:.:.:.:.",
";.;.;.;.;.&.&.&.&.;.;.=.&.=.:.;.:.;.=.=.=.&.&.&.=.=.;.;.&.=.:.;.;.;.=.=.=.=.&.&.=.=.:.;.%.;.:.;.;.;.;.=.=.=.&.&.=.=.;.;.&.=.:.=."
};
