/* XPM */
static char *result[] = {
/* columns rows colors chars-per-pixel */
"64 64 197 2 ",
"   c #010201",
".  c #0A0603",
"X  c #060903",
"o  c #0A0C04",
"O  c #060708",
"+  c #070809",
"@  c #0A0B0B",
"#  c #170E05",
"$  c #0E1206",
"%  c #111607",
"&  c #171A07",
"*  c #11140B",
"=  c #1A120C",
"-  c #151B09",
";  c #0D0F10",
":  c #0E1112",
">  c #111314",
",  c #181915",
"<  c #131618",
"1  c #151A1B",
"2  c #1B1B1A",
"3  c #281700",
"4  c #231C17",
"5  c #2B1E13",
"6  c #1A230B",
"7  c #1F290D",
"8  c #222C0E",
"9  c #392200",
"0  c #26320E",
"q  c #242E11",
"w  c #21201E",
"e  c #3B271A",
"r  c #263210",
"t  c #293612",
"y  c #2D3A14",
"u  c #303E16",
"i  c #1A1F21",
"p  c #1C2224",
"a  c #1F2628",
"s  c #252421",
"d  c #232A2D",
"f  c #2B2B29",
"g  c #312F2C",
"h  c #33312E",
"j  c #262E32",
"k  c #293135",
"l  c #2C3539",
"z  c #2F383C",
"x  c #353736",
"c  c #3B3935",
"v  c #492D07",
"b  c #543500",
"n  c #6B3C00",
"m  c #4D3522",
"M  c #473229",
"N  c #5A3B27",
"B  c #334216",
"V  c #364618",
"C  c #3B4C1A",
"Z  c #3F521B",
"A  c #41551D",
"S  c #455B1C",
"D  c #485E1F",
"F  c #674900",
"G  c #774700",
"H  c #7C5700",
"J  c #4A621E",
"K  c #536F1E",
"L  c #54701F",
"P  c #5D4029",
"I  c #465A20",
"U  c #495E21",
"Y  c #45423E",
"T  c #6B482D",
"R  c #794E36",
"E  c #785235",
"W  c #4D6421",
"Q  c #4F6821",
"!  c #536C24",
"~  c #566E28",
"^  c #577223",
"/  c #5B7727",
"(  c #5E7A29",
")  c #607E27",
"_  c #617D2B",
"`  c #333D42",
"'  c #364145",
"]  c #3A454B",
"[  c #3C494E",
"{  c #3E4C51",
"}  c #4A4742",
"|  c #514E49",
" . c #54514C",
".. c #404D54",
"X. c #46545B",
"o. c #47555B",
"O. c #595651",
"+. c #605D57",
"@. c #66625C",
"#. c #4C5B62",
"$. c #53646B",
"%. c #56686F",
"&. c #5B6D75",
"*. c #5F727A",
"=. c #6C6962",
"-. c #726E67",
";. c #77736B",
":. c #637971",
">. c #62757E",
",. c #7D7971",
"<. c #8C5500",
"1. c #985500",
"2. c #AB6000",
"3. c #85573C",
"4. c #915F39",
"5. c #8D613E",
"6. c #97633B",
"7. c #CC7300",
"8. c #D17500",
"9. c #E07E00",
"0. c #8C5643",
"q. c #9D6C46",
"w. c #A37048",
"e. c #AB724B",
"r. c #AE784D",
"t. c #B77C4D",
"y. c #827D75",
"u. c #CE7F62",
"i. c #638426",
"p. c #65832C",
"a. c #6B8C2D",
"s. c #6E912A",
"d. c #71952D",
"f. c #759D2B",
"g. c #789F2D",
"h. c #668231",
"j. c #6C8B31",
"k. c #6F9131",
"l. c #729432",
"z. c #769A32",
"x. c #799E34",
"c. c #799C39",
"v. c #79A02E",
"b. c #7DA533",
"n. c #7EA339",
"m. c #759556",
"M. c #81A936",
"N. c #81A63B",
"B. c #85AD3A",
"V. c #85AC3C",
"C. c #89B13E",
"Z. c #D29100",
"A. c #E78200",
"S. c #F28800",
"D. c #FFB800",
"F. c #86AB43",
"G. c #8CB441",
"H. c #90B845",
"J. c #8A857D",
"K. c #BA8B63",
"L. c #CB854F",
"P. c #C48757",
"I. c #D2915D",
"U. c #DD955C",
"Y. c #DE9962",
"T. c #E39C64",
"R. c #E09C66",
"E. c #F09474",
"W. c #E8A067",
"Q. c #637781",
"!. c #657A83",
"~. c #697E89",
"^. c #6D838D",
"/. c #708791",
"(. c #79919E",
"). c #7B94A0",
"_. c #8F8A81",
"`. c #928D84",
"'. c #9A958B",
"]. c #A39D93",
"[. c #AAA49A",
"{. c #B1AB9F",
"}. c #B3ADA2",
"|. c #BBB5A9",
" X c #C1BAAE",
".X c #C5BEB2",
"XX c #CDC6B9",
"oX c #D1CABD",
"OX c #D5CEC1",
"+X c #DAD3C5",
"@X c #E3DBCD",
"#X c #EBDDCA",
"$X c #E7DFD0",
"%X c #ECE4D5",
"&X c #EFE7D8",
"*X c #EFE8D8",
"=X c #F0E8D9",
/* pixels */
"M.M.M.M.M.M.M.M.b.b.S                   / M.M.B.b.b.M.M.B.B.B.C.M.M.M.M.M.M.M.B.b.d.6                 7 z.M.M.M.b.b.b.M.B.B.B.C.",
"b.b.B.B.C.C.C.C.C.C.C   ; 1 1 < < < +   ! C.C.C.C.C.C.B.M.M.M.M.b.b.B.B.B.C.C.C.C.n.%   < 1 1 < < <   - n.C.C.C.C.C.C.C.M.M.M.M.",
"B.C.B.C.G.H.H.H.C.C.W   ] !.!.*.&.&.d   _ H.H.H.C.G.G.B.M.b.b.M.B.B.B.C.C.H.H.C.C.N.6 : &.!.Q.&.&.#.@ 7 F.H.H.H.C.G.G.B.b.b.b.M.",
"B.B.M.M.M.B.B.B.M.B.^   ` ^.^.!.>.*.d . p.B.B.M.M.B.B.M.v.M.B.B.C.B.M.M.B.B.B.B.b.n.8 + &.^.^.*.Q.#.X r b.B.B.M.M.M.C.M.b.M.M.B.",
"B.M.M.M.M.M.b.v.b.M.(   k ^.^.!.>.>.1 o s.M.M.v.b.M.M.M.B.C.C.C.B.M.M.M.B.B.M.v.v.M.y   $./.~.Q.Q.X.  u M.M.b.b.b.M.M.M.B.C.C.C.",
"M.M.B.C.G.C.B.b.B.B.a.o 1 { ..[ ] ` @ - N.C.B.M.B.B.C.C.C.C.C.C.M.M.B.C.C.C.B.M.B.B.C . k ..{ Y ] j   I G.G.B.M.B.B.B.C.C.C.C.C.",
"b.b.B.C.C.C.B.M.B.M.l.%               8 N.C.B.M.M.M.M.B.B.M.M.B.b.b.M.C.C.C.B.M.B.M.D       . .       ! V.C.B.M.B.M.M.B.B.b.M.B.",
"M.B.B.B.C.B.C.C.v.f.f.t   N 0.3.3.M   S V.V.C.C.v.f.v.v.v.f.v.M.M.B.B.B.B.C.B.C.g.f.) O 4 R 3.3.R = o l.V.C.B.C.v.v.v.v.v.v.v.B.",
"B.C.C.B.B.C.C.M.B.M.B.V . e. XE. X4.# J V.C.V.M.B.M.C.C.B.H.H.M.B.C.C.B.B.C.C.M.B.M.f.$ 5 E. XE.E.5 % z.B.C.C.M.B.M.C.C.B.C.C.B.",
"M.B.M.b.b.M.b.v.b.C.H.^   M E.E.u.5 . ) M.M.x.g.M.C.H.C.M.v.M.M.M.M.M.M.M.M.b.v.b.C.C.8 . q.E.E.0.  t b.b.n.b.g.b.B.H.C.M.b.M.B.",
"M.M.B.B.B.C.B.b.C.C.C.n.8 . 3 m =   V n.M._ e i.B.C.C.C.C.M.M.M.M.C.B.B.C.C.M.b.C.C.C._ X . M e . X _ B.M.A V b.C.C.C.C.C.M.M.M.",
"C.C.H.G.C.C.C.C.C.M.v.d.t   . .     Z C.C.U . K C.B.v.v.C.B.M.B.C.C.C.C.C.C.C.B.C.M.v.^ o         * j.G.N.- - z.C.M.v.b.C.B.M.B.",
"C.C.C.C.C.M.b.v.b.v.s.y   5 3.e     X ~ B.S   S v.M.f.v.M.v.b.V.C.C.C.C.C.B.b.v.b.b./ % . N E #     7 c.x.- % s.v.b.v.v.b.v.b.B.",
"C.C.C.C.M.M.v.v.M.n.C   = t.w.. i M O 7 b.S   J M.B.B.B.B.M.M.C.C.C.B.B.M.M.b.v.M.a.-   N I.m   x s   J b.- % s.M.B.B.C.B.M.M.C.",
"C.B.B.B.B.M.M.M.B.A .   m T.E   y.+Xx $ j.D   J C.C.C.C.C.C.G.V.C.B.B.B.B.M.M.M.l.6   O w.I.5 , XX].X u z.- $ f.C.C.C.C.C.C.C.C.",
"C.B.M.M.M.M.b.b.S   X   N T.E   y.&X|   ( S   J M.M.B.B.b.M.C.M.C.B.B.M.M.M.b.s.7     . r.I.5 , oX X> 8 f.- % f.M.M.B.B.b.M.C.B.",
"M.M.M.M.M.M.M.J o 2 +.  P T.q.  @.*X=.  D t   r ! f.M.M.B.B.B.B.M.M.M.M.M.M.z.8   | c . r.Y.e @  XoX2 & ! o o Z p.b.b.M.B.C.B.C.",
"b.M.B.B.B.C.^ $ > ].].  P T.r.> ,.*X,.  - .       V N.C.M.M.M.M.b.M.M.B.B.n.y   M XX} . r.T.m X {.+Xf $ %       o ( C.C.M.b.M.b.",
"B.B.B.C.H._ $ @ `.*X_.  P T.U.K.OX*X`.  X   j X.1 X k.B.b.b.b.M.C.B.V.C.V.V   c OX@Xc O r.T.P   '.%XM O X O { `   u G.C.b.b.b.M.",
"B.B.M.M.) $ @ J.%X|.w   P Y.Y.R.#X*X[.X     ..).l X _ M.b.M.B.B.B.B.N.b.V . g XX%X;.O X r.T.E   ,.&X|     ; ^.!.@ q n.b.b.M.M.C.",
"B.M.M.x.8 O ,.%X|.f     P Y.Y.5.;.$X|.@     { (.l   i.M.B.C.G.C.B.M.M./   s |.%X,.+   @ r.W.5.  =.*X@.    ; ~.Q.@ 8 n.M.B.C.C.C.",
"M.M.B.l.o h +XoXx   6   P Y.I.e > .XXX,     { (.l   p.C.C.C.C.C.b.M.B.S   J.=X`.@ $ % O r.T.q.  O.*X,.    ; ~.Q.@ 0 M.C.C.C.C.C.",
"b.b.M.a.o } %X`.  y !   P R.Y.m O }.+Xs     ..(.l X _ M.M.M.M.V.b.b.B.V   ].%Xc   K t . r.W.t.. Y &X`.    ; ~.Q.+ q b.B.M.b.M.C.",
"B.M.B.p.   .%XJ.  Z L X e q.q.e . ].@Xh     ..(.l   ^ b.f.f.g.M.M.B.B.B X {.+Xg $ i.0 . E q.3.. g +X[.    ; ~.Q.@ 7 f.v.v.f.v.M.",
"B.C.C./   +.=X-.  ! (             J.%X|     { (.k   q t y y u a.B.C.B.t @ |.OXw - l.t           4 OX X:   ; ~.Q.@ $ t t t y U n.",
"n.M.M.K   -.=X@.  ( h.  9 F F b   O.%XJ.    ..(.k     X O     U b.M.n.8 > .XoX2 6 n.u . b F F & + {.@Xh   ; ~.Q.+   X   O   % k.",
"M.M.M.W   y.&X .  p._   F D.D.Z.# s OX|.; . ..(.l   ] #.#.k   S M.B.n.6 , oX.X* 8 B.y . Z.D.D.<.  ;.*X=.  ; ~.Q.+ 1 #.#.o.> $ k.",
"C.G.G.I . J.%XY o a.L   9 H H G # O {.@Xx   ] ^.j   ..&.&.`   S C.G.n.- s OX|.@ t M.0 . F H H b O M $X].  ; *.&.+ 1 %.&.%.< $ l.",
"G.G.C.C   '.@Xc $ a.^           .   ;.*X=.  @ > O   @ > : @   U G.G.x.% g @X[.. u b.0           O 1 .XoX4   : ;   X : > ;   % l.",
"C.V.C.B X [.@Xg $ z.(   e 4.5.3.T . M @X[.O . 3 #   $ - - - 6 p.C.C.l.o c @X'.  V B.t   T 5.4.3.e   `.%X|   # 3 .   - - - - B N.",
"C.B.B.y @ |.oXs - n._   P T.T.U.L.5 * .XOXp # 8.1.  V N.n.N.N.B.V.V.a.o Y %X_.  S C.y O t.W.T.U.4.  O.%XJ.  n A.9 O h.N.n.N.V.B.",
"V.B.n.8 > .XoX, 6 b./   e E E E T 5   _.%X| . 2.7.. r M.b.M.C.B.C.B._    .%Xy.  D M.t X P E E R N   s OX X; 9 S.n   ^ M.b.M.G.M.",
"M.M.b.t O J.J.O 0 b.i.O                .&XJ.. n A.3 % z.B.C.B.B.M.M.p.  h {.Y   ! b.B               O [.@Xc . 7.1.  C M.B.B.B.B.",
"b.M.M.~ o @ X O ~ G.V.t   z ] ; O l @ w OX X; 9 A.v X p.M.b.M.B.b.b.b.t   @ . 8 n.G.a.O : [ j   i d   -.&X=.. 1.7.. t M.M.M.M.B.",
"B.B.C.V./ y y ( V.G.G.y   %.^.: O #.d . [.@Xc . 8.G   Q b.b.b.b.B.B.C.x.I t V c.G.G.l.X a ^.X.  d #.X c $X[.O b 9.3 % z.b.b.b.M.",
"B.B.M.M.B.N.M.B.n.B.M.r + %.*.:   d `   -.&X-.  <.2.  V b.M.B.B.C.B.M.M.n.M.B.M.b.B.p.O d ^.{     ] 1 :  XOXw # 8.v . _ b.M.B.B.",
"B.M.M.M.M.M.M.v.v.M.b.8 @ &.*.@     j X c @X].  # 3 . 7 n.C.C.C.B.M.M.b.M.n.b.b.b.b.f.t { ^.]   . < a   J.%X}   3 #   Q B.C.C.C.",
"M.M.V.C.C.C.C.b.C.B.n.6 : *.&.@ o X @ O @ -.|   . % o u C.C.C.C.b.M.C.C.G.G.B.b.B.C.B.m.^.^.'   o   :   h y.w   % $ % / C.C.C.C.",
"v.b.B.C.C.C.B.M.B.b.b.- : >.%.+ q V     O       W d.d.b.M.b.b.C.b.b.M.C.C.C.B.M.M.b.n.m.^.^.z   A -   O       6 a.k.d.B.B.b.M.B.",
"B.B.B.B.M.C.C.C.v.f.s.% < Q.$.O y z.6   j ` d   8 s.f.b.v.v.v.B.M.B.B.B.B.C.C.C.v.v.^ - #.^.k   _ ~   : ' z <   D f.v.v.v.f.v.B.",
"B.C.C.B.B.C.C.B.C.b.z.* 1 !.#.  V G./ O < %.&.p   D B.V.V.G.G.M.C.C.C.C.C.C.C.M.C.M.J   { ^.d O p.V.y   z >.X.O - a.C.V.B.G.G.M.",
"M.M.B.b.v.B.v.v.b.B.c.$ p ^.o.  V M.b.V   j *.#.+ $ l.G.b.n.M.M.b.M.M.v.b.b.v.v.b.C.I   { ^.a X a.M.a.% X X.>.k   u G.G.M.b.M.B.",
"M.B.B.C.C.C.B.v.C.C.p.X a ^...  Z B.B.l.6 X ..>.`   B C.C.b.b.M.b.C.C.M.C.C.M.b.V.V.V   o.^.p $ a.B.V.W . 1 &.%.< o p.C.V.M.M.M.",
"C.C.C.C.C.C.C.B.G.l.6   ' ^.{   W G.G.G./   < &.$.+ 6 f.C.C.M.C.C.C.G.G.G.C.C.C.C.! X ; &.!.1 $ z.G.G.V.y   ' !.z   S v.C.B.M.B.",
"C.C.C.C.C.M.M.v.d.r   j !.Q.p   ( G.G.C.N.7 + $.%.@ 6 d.b.b.v.C.C.G.C.C.C.M.b.v.^ $ + o./.o.+ 7 N.G.C.C.(   d >.'   S v.b.v.b.C.",
"C.C.C.B.B.M.v.f.B   p >.~.k   r n.C.V.B.n.7 O $.$.@ 7 n.M.M.M.C.C.C.C.B.M.M.v./ -   { /.%.:   ~ F.C.C.B._   d >.z   J C.B.M.M.C.",
"C.C.B.B.B.M.b.C   1 &.^.`   7 l.C.B.V.B.b.7 @ $.$.+ 8 C.C.C.C.C.C.C.B.B.B.M.s.6   ` ^.&.<   S M.C.B.B.B.(   d !.z   ~ C.C.C.C.V.",
"B.B.M.M.M.M.D   : %.^.{   - a.B.V.B.M.M.z.7 @ $.$.+ q b.b.B.C.M.C.M.M.M.M.d.7   l ~.*.p   V N.B.C.B.M.M.^ . k >.z   ^ V.v.M.C.B.",
"M.M.M.M.M.~ X ; #.^.X.O $ ( B.C.M.M.M.M.M.C d &.#.+ 8 M.C.M.C.C.M.M.M.M.f.y   d !.!.d   t b.B.B.M.M.M.M.~   k >.l . ! M.B.C.B.B.",
"M.b.M.B.( * X X./.#.@ O ! b.M.b.b.M.M.B.C.N.:.>.#.@ t B.M.M.b.M.b.b.M.n.V   p *.~.l   8 d.M.M.M.b.b.M.B./   l >.k   ( V.M.b.M.M.",
"B.B.C.a.-   [ ^.%.: X W b.b.b.M.B.B.C.C.G.F.:.Q.#.+ y M.b.b.b.b.C.C.B.I   1 &.^.'   - k.M.v.M.M.C.B.C.C.~   z >.j   ( B.b.b.b.M.",
"V.B.s.6   z ^.&.1   Z b.b.M.B.B.B.B.M.M.n.V j *.#.  y n.b.b.C.B.C.M.J   ; %.^.{ X % p.M.M.M.B.V.B.B.M.M.!   z Q.j . ( M.b.M.B.B.",
"B.M.y   k ~.>.a   B b.b.B.C.C.C.B.M.M.M.z.% < &.o.  y M.B.C.C.C.M.p.$ @ #.^.o.+ o / M.M.M.C.C.C.B.M.M.M.J   ` >.d X ( M.B.C.C.C.",
"M.d.% < >.!.j   t v.C.C.C.C.C.C.M.M.B.C.n.% < &.#.  B C.V.G.C.C.b.J   ' ^.$.; O ! M.V.C.C.C.C.C.M.M.B.C.!   ` >.d   p.C.C.C.C.C.",
"v.d.- : >.*.: o a.b.b.C.B.b.M.C.b.b.M.C.x.% 1 &.X.  - C p.b.M.B.b.J   ` /.{   y M.M.M.V.B.M.M.V.v.b.B.C.W   ` >.d   0 W z.b.M.C.",
"B.M.u   o.^.d X ^ f.v.v.v.v.v.M.M.B.B.C.l.$ 1 &.#.+     o L v.B.M.a.o 1 !.$.X q f.f.f.b.v.f.g.M.B.B.B.B.I   ' Q.k       0 s.v.M.",
"B.C.~   l /.{   Z B.C.B.B.G.H.M.B.C.C.B.l.$ 1 &.>.#.o.z   y G.M.B.V.q X $.!.i X k.M.B.C.B.G.H.M.M.C.C.B.S   ] >.%.o.X.1   _ G.M.",
"b.M.a.o : %.[   B n.F.V.z.f.z.n.f.n.x.z.p.$ : $.&.&.*...O 7 f.n.f.n.A   ` *.i O ( n.F.V.x.f.z.N.z.x.n.z.Z   l &.&.*.&.d   K M.N.",
"x.D 8 .   ; O   $ 6 6 6 6 6 6 6 - 6 6 6 6     ; < < < +   O - 6 6 6 %   X :     - 6 6 6 6 6 6 - 6 6 6 6 %     < < : :     6 D n.",
"C   @ = = = = = = = = = = = = = = = = = = = = = # = = = = = = = * = = = = = = = = = = = = = * = = = = = = = = = = = = = = .   V ",
"o * q.P.P.P.P.P.P.P.P.P.P.P.P.P.P.P.P.P.P.P.P.P.P.P.P.P.P.P.P.P.P.P.P.P.P.P.P.P.P.P.P.P.P.P.P.P.P.P.P.P.P.P.P.P.P.P.P.t.t.6.# o ",
"X = r.I.I.I.I.I.I.I.I.I.I.I.I.I.I.I.I.I.I.I.I.I.I.I.I.I.I.I.I.I.I.I.I.I.I.I.I.I.I.I.I.I.I.I.I.I.I.I.I.I.I.I.I.I.I.I.I.L.L.w.#   ",
"B   = 5 5 5 5 5 5 5 5 5 5 5 5 5 5 5 5 5 5 5 5 5 5 5 5 5 5 5 5 5 5 5 5 5 5 5 5 5 5 5 5 5 5 5 5 5 5 5 8 5 5 5 5 5 5 5 5 5 5 = . B ",
"c.B                                                                                                   .                     B l."
};
