/* XPM */
static char *result[] = {
/* columns rows colors chars-per-pixel */
"64 64 220 2 ",
"   c #5F737D",
".  c #667D6E",
"X  c #657B75",
"o  c #61747D",
"O  c #64787A",
"+  c #797B76",
"@  c #797B78",
"#  c #9A7F67",
"$  c #887F7B",
"%  c #769E2B",
"&  c #779D39",
"*  c #759A3C",
"=  c #79A12E",
"-  c #7DA532",
";  c #7EA43A",
":  c #799D44",
">  c #739548",
",  c #77994C",
"<  c #7A9D4C",
"1  c #6A855C",
"2  c #6E8B5C",
"3  c #718E57",
"4  c #728F5C",
"5  c #749453",
"6  c #789856",
"7  c #7B9C54",
"8  c #74925C",
"9  c #799A5B",
"0  c #7EA344",
"q  c #7DA24B",
"w  c #7DA053",
"e  c #7FA15A",
"r  c #6B8663",
"t  c #6E8963",
"y  c #6B836B",
"u  c #6F896A",
"i  c #728E63",
"p  c #77876E",
"a  c #769566",
"s  c #7A9967",
"d  c #75936C",
"f  c #6A8071",
"g  c #6F8A73",
"h  c #6F8A7C",
"j  c #7D8171",
"k  c #728E75",
"l  c #718C7C",
"z  c #759172",
"x  c #7C9B72",
"c  c #BE9F1F",
"v  c #B7A91D",
"b  c #839F2E",
"n  c #899F35",
"m  c #8BA42C",
"M  c #9EA62D",
"N  c #82A735",
"B  c #81A936",
"V  c #80A63B",
"C  c #8DA139",
"Z  c #85AD3A",
"A  c #8DAB3D",
"S  c #94A93A",
"D  c #89B13E",
"F  c #98B33B",
"G  c #A9A52B",
"H  c #BBAA2A",
"J  c #A7A434",
"K  c #CD9B17",
"L  c #D99916",
"P  c #FF8F00",
"I  c #F78F09",
"U  c #E9940A",
"Y  c #FA9207",
"T  c #F9981B",
"R  c #FFA202",
"E  c #FFAA00",
"W  c #EEB20A",
"Q  c #FFB300",
"!  c #FDA615",
"~  c #F59E27",
"^  c #E59838",
"/  c #CDAB33",
"(  c #E9A62C",
")  c #F0A72C",
"_  c #F0A82C",
"`  c #FAA835",
"'  c #F3AA39",
"]  c #8B9659",
"[  c #A89E46",
"{  c #A59D55",
"}  c #81A644",
"|  c #84AA43",
" . c #89AF43",
".. c #81A54C",
"X. c #87AA49",
"o. c #94A643",
"O. c #94A941",
"+. c #9AAA47",
"@. c #9AAD45",
"#. c #8CB442",
"$. c #8AB048",
"%. c #91B946",
"&. c #94B748",
"*. c #92B54D",
"=. c #9DB048",
"-. c #81A353",
";. c #86AA53",
":. c #82A559",
">. c #93A256",
",. c #8BB150",
"<. c #95B553",
"1. c #96B853",
"2. c #9BB85A",
"3. c #A2A549",
"4. c #ACA44C",
"5. c #ACAC55",
"6. c #B8A655",
"7. c #9C826B",
"8. c #878B7C",
"9. c #8B9270",
"0. c #92907E",
"q. c #A8946A",
"w. c #A48D76",
"e. c #85A668",
"r. c #9EB864",
"t. c #8FAA70",
"y. c #A2BC64",
"u. c #A7BC6C",
"i. c #BABA66",
"p. c #A9BE72",
"a. c #C98E4F",
"s. c #CE8E51",
"d. c #D48B53",
"f. c #D58E58",
"g. c #C99957",
"h. c #D4935B",
"j. c #DA935C",
"k. c #D29B5D",
"l. c #D89A5F",
"z. c #E39842",
"x. c #E9A241",
"c. c #F7B053",
"v. c #CE9F60",
"b. c #D69764",
"n. c #DB9762",
"m. c #D79862",
"M. c #DE9962",
"N. c #DB9D6A",
"B. c #E09962",
"V. c #E59A68",
"C. c #E89D70",
"Z. c #F49E75",
"A. c #FD9D7A",
"S. c #CEA362",
"D. c #DAA169",
"F. c #DDA375",
"G. c #DDA97D",
"H. c #F3BA67",
"J. c #E0A472",
"K. c #EBB375",
"L. c #A7C16A",
"P. c #ACC275",
"I. c #B2C57D",
"U. c #B3C87E",
"Y. c #657A83",
"T. c #687C83",
"R. c #6E8685",
"E. c #6F8981",
"W. c #6C838C",
"Q. c #708982",
"!. c #75878B",
"~. c #7A9682",
"^. c #7D9985",
"/. c #6D8490",
"(. c #778D97",
"). c #779095",
"_. c #799293",
"`. c #76909C",
"'. c #78909C",
"]. c #938986",
"[. c #89938F",
"{. c #AB9885",
"}. c #A9B295",
"|. c #9EA5A4",
" X c #AEB2AE",
".X c #BABBB5",
"XX c #D6BA8C",
"oX c #E0AF86",
"OX c #E2BB98",
"+X c #B9C986",
"@X c #BAC88A",
"#X c #BECA93",
"$X c #D1C08E",
"%X c #C2CE95",
"&X c #C5CF9B",
"*X c #C6D09B",
"=X c #F2C889",
"-X c #F2CC94",
";X c #CAD2A3",
":X c #CFD4A9",
">X c #D3D6AE",
",X c #C7C4B7",
"<X c #D5D6B3",
"1X c #D7D9B6",
"2X c #DBDBBC",
"3X c #E5C2A1",
"4X c #E4C7AB",
"5X c #F0D1A6",
"6X c #E5CCB2",
"7X c #EAD6B8",
"8X c #D0CDC3",
"9X c #DEDCC4",
"0X c #E2DDC5",
"qX c #E9D8C3",
"wX c #E4DFCB",
"eX c #EADCC9",
"rX c #E6DFD1",
"tX c #E6E0CC",
"yX c #EAE0CE",
"uX c #EBE3D4",
/* pixels */
"Z Z Z Z B B = - Z B B B 2 o o o Y.W.W.W.k - - - Z B - B B B B B D Z Z Z B - - - Z B B B 0 X o o Y.W.W.W.R.< - - B B B B B B B B ",
"B B B B D D #.D D D D D 8 o o o Y.W.W.W.d D D D D D D D Z B - - B B B B Z D D D D D D Z | X o   o T.W.W.R.;.#.#.D | D D Z B B - ",
"B - - - Z D %.D %.%.%.#.6 o o o Y.W.W.W.s #.#.#.#.%.%.#.D D Z Z B - - - D D %.D #.%.%.%.| f o o Y.T.W.W.R.X.#.D %.%.%.#.D D Z Z ",
"Z Z B - B Z Z - B Z Z B , o o   Y.W.W.W.9 Z B - Z Z Z B B B Z D Z Z B - B Z Z - B Z Z B - y o o Y.T.W.W.h | Z - B Z Z B B B Z Z ",
"D D D Z B B B = - - B - : o     Y.W.W.W.w - - - = - B B B B B Z D D D Z B Z - - = - B B - r   o   Y./.Y.h 0 B - = - B Z B B B Z ",
"D D D D D Z Z Z - Z #.#.X.p $ $ 8.].].8.X.Z Z Z B Z D #.D Z B B D D D D D Z Z Z B Z #.#.#.5 $ 8.$ ].].].s Z Z Z B Z D D D Z B B ",
"Z B B B Z B B Z Z Z D D A 6.A.A.A.A.A.S.Z - - Z B Z D D D Z - = Z B - Z Z - B Z B Z D D Z O.C.A.A.A.A.Z.=.Z B Z Z Z D D D Z - = ",
"Z = % = - % % = D Z D Z Z S.A.A.A.A.A.D.- = = = D D Z Z Z Z Z Z Z = = = = = = = D Z D Z Z +.Z.A.A.A.A.A.3.% % % D D Z Z Z Z Z Z ",
"Z #.#.Z D Z B Z Z D D D Z 6.A.A.A.A.A.S.D Z Z Z B D D Z Z D D Z B D D D D D Z Z Z D D Z Z O.J.A.A.A.A.Z.@.D Z Z B D D Z Z D D Z ",
"B - - B #.%.D - * > ; - - A D.A.A.A.V.S #.%.D - = - B - - B B B Z - - Z D %.Z - = : 0 - - B 4.Z.A.A.Z.6.#.%.Z - = = B - B B B - ",
"Z - B D D D D D 1 o q Z B Z S g.V.k.o.A D #.D D - Z D Z Z Z Z B Z - B Z D D D Z ; O y Z Z Z Z [ B.V.6.A D D #.Z B B Z Z Z D Z B ",
"Z B Z D = = Z D t   w #.#.&.g.s.d.f.g.+.= = ; D Z D #.#.#.#.D D Z B Z D = = Z D < O y #.#.#.4.g.d.d.s.6.- = B #.Z D D %.D D D D ",
"Z - - - = = = - 1   < D #.$X6XOXm.l.B.S.| = - - = - B D D #.#.D Z - - - = = - - *   y | D 2.4X6XG.j.j.M.5.% N - = - B D D D D D ",
"D B - Z D Z Z - 1   : ; 2.tXuXuXoXB.B.M.XX1.Z - = - B B Z Z D D D B - Z Z Z Z - * O y B A *XuXuXqXN.M.M.G.U.A - = - B B Z D D D ",
"Z #.D D #.D D D t   < Z P.uXuXuXOXB.M.M.3X>X1.D B B B Z Z Z Z D Z D D D D D D D 0 o r V #.<XuXuXeXJ.j.B.J.qXU.D B B B Z Z Z D D ",
"Z D B - Z Z B - r o , - I.uXuXuXOXM.M.M.3XuX;X#.- - - B B B Z D Z D Z - Z Z B B * O y -  .2XuXuXqXN.M.M.J.eXtXL.- - N B B B Z D ",
"Z Z Z Z B - - - u O q - #XuXuXuXoXj.M.M.3XuXuX&X#.B - - B B B B Z D Z Z ; - - - w O y ; %.tXuXuX6XN.B.M.F.eXuX0Xu.B B B B B B B ",
"Z B - Z D D ;.^.).).e D *XuXuXuXJ.l.B.M.3XuXuXuX*X#.D D Z Z - - Z - - Z D #.#.e._.(.~.Z 2.tXuXuX4XB.M.M.F.eXuXuX9XL.D D Z B B - ",
"B - - - Z #.t.`.`.'.e.%.>XuXuXeXF.B.M.M.OXuXuXuXuX%X%.#.D D Z Z - - - - Z #.,._.`.`.^.%.L.uXuXuX3Xj.B.M.N.7XuXuXuX2XL.#.D D Z Z ",
"Z B B - ; Z x `.`._.e #.1XuXuX0XN.B.M.M.6.*XuXuXuXuX+XZ B B Z Z Z Z B - - Z q _.`.`.^.; L.uXuXuXOXj.M.M.k.p.0XuXuXuX1X1.B B Z Z ",
"D D D Z Z - x `.'.'.w %.9XuXuX7Xn.M.M.M.4.$.;XuXuXuXtXy.B B B Z D D D Z B Z 0 _.`.'.~.B U.uXuXuXoXM.M.B.k.A p.wXuXuXuX:XZ B Z Z ",
"D D D D D Z x `.'.'.;.2.wXuXuX6Xn.M.B.M.4.Z <.<XuXuXuX+XD Z B B D D D D A Z .._.'.'.~.#.%XuXuXuXoXj.M.M.k. .B I.tXuXuX2X*.Z B B ",
"Z - - Z Z Z x '.'.'.e y.tXuXuX6Xj.M.M.M.4.B B P.uXuXuX#XD B - = Z - - D Z B } _.`.`.^.#.*XuXuXuXF.j.M.B.k.A -  .<XuXuX0X1.B - = ",
"Z = % = - = s '.'._.e L.uXuXuX3Xf.M.M.M.[ % % r.yXuXuX*XZ Z Z Z Z = = = - % * _.'.`.^. .>XuXuXyXb.n.n.B.h.b % - :XuXuXtX2.Z Z Z ",
"; $.$.| | } x `.'.'.:.+XuXuXuXH.~ _ ) ) H D - y.tXuXuX*XZ D D Z - %.$.0 | | q ).'.'.^.<.9XuXuX7X^ ) _ ( ( F B Z ;XuXuXwXy.A D Z ",
"V y X X X O !.`.'.'.:.:XuXuXuX' R Q Q Q H %.D 1.tXuXuX:XB ; Z - B 5 X X f X f `.'.'.~.r.tXuXuX-XE Q Q Q W &.A - %XuXuXuXr.B B - ",
"; X     o o W.`.'.).t.tXuXuX5X! E Q Q Q / Z D 1.tXuXuX>X .Z Z - Z 3   O     Y.`.'.'.~.#XuXuXuXH.R Q Q Q W F #.Z @XuXuXtXL.Z Z B ",
"0 X o   o o /.`.`.).}.uXuXuX=XY E Q Q Q v = Z 1.2XuXuX1X%.#.D D Z 3     o   Y.`.'.'._.1XuXuXtX` R E Q Q W m B #.+XuXuXuX+X#.D D ",
"| r X f . . 8.0.].0.,XuXuXuXK.^ ^ x.x.x.J % - | 1XuXuX2X*.#.#.#.A 5 . . . . . 0.].0.{.tXuXuX7Xz.^ ^ x.x./ n - - p.uXuXuX+X#.#.D ",
"D ; ; V V Z K I Y ~ 7XuXuXeXM.d.h.M.n.M.4.A Z | <XuXuX9X*.D D D D B V V | | M I I I H.uXuXuXOXd.d.M.M.M.m.S Z B y.uXuXuX@XZ D D ",
"Z #.#.D #.F U P P ' uXuXuX6Xf.d.j.M.M.M.6.#.Z #.:XuXuX0X1.Z D D Z D D D #.#.c I P Y -XuXuXuXG.d.d.M.M.M.v.#. .A y.uXuXuX%XZ Z D ",
"Z D - - Z M Y P P H.uXuXuXOXd.d.j.M.B.B.4.Z - B ;XuXuXtX2.- Z Z Z D B - B Z K P P T qXuXuXqXn.d.d.M.B.B.k.A - N 2.wXuXuX*XB Z D ",
"Z Z Z Z B G P P Y 5XuXuXrX{.# # w.w.w.q.O.B - - @XuXuX0X*.B B B Z Z Z Z B m U P P c.eXuXuX,X# # 7.w.w.w.{ - - - *.9XuXuX#XB B B ",
"B B B B A K P P ~ yXuXuX8XT.  Y.W.W.W.k D D D D 1.;X1XU.D B - - B B B B Z F U P P =XuXuXuX|.    T.W.W./.e #.D D D I.1X;X*.Z B - ",
"B - - - Z L P P c.uXuXuX.Xo o O W.W.W.l Z #.#.D %.&.&.#.D D Z D - - - - D G P P Y 5XuXuXeX[.  o T.W.W.W.7 #.#.#.#.%.1.%.D D Z Z ",
"Z Z B - m Y P P -XuXuXuX[.  o 4 E.W.W.h ; Z Z - B Z Z Z B B Z Z Z Z B - B c P P ` yXuXuX8XT.  X d W.W.W.9 Z Z - B Z Z Z B B Z Z ",
"D D D Z M Y P T 7XuXuXwX!.o y } h W.W.E.0 B - - - - B B B B B B D D D Z B K P P c.uXuXuX Xo o , s R.W.W.a B - - - - B Z B B B Z ",
"D D D D A G G J 6XuXuX,XY.X : V h W.W.E. .D Z Z B Z D #.D Z Z B D D D D D M G G i.uXuXuX[.  t - e W.W.W.s Z Z Z B Z D D D Z B B ",
"Z - B Z Z B N A t..X.X!.o 3 - - l W.W.R.} B B Z B Z D D D B B = Z B - Z Z - - Z  .}.,X|.Y.X & - e W./.W.s - B Z B Z D D D B - - ",
"B = = = - % % % u Y.o Y.y | B Z z W.W.R.* = % = D Z D Z Z Z Z Z Z = % = - = = = 7 o Y.o o 6 Z Z < R.W.W.a % % = D Z Z D Z Z Z B ",
"B D D D D D Z 6 o o o X < D D Z z W.W.R.w Z B D B D D Z Z D D Z - %.#.Z Z Z Z | X o o o t | D D < W.W.W.z Z B Z Z D D Z Z D D Z ",
"Z Z = B D %.0 X o o   2 - B B - z W.W.R.;.%.Z - = - B - - B B - Z - - B #.#.Z t o o o X ; B B - q R.W.W.z %.D - = - B B - B B B ",
"B - B D D | u   o o y | Z Z Z B d W.W.W.w #.#.Z - Z Z Z Z Z Z B Z - B Z D #.q O o o o 5 Z Z B B q R.W.W.k #.D D - B Z Z Z Z Z B ",
"Z B Z D - * o o o O w #.#.#.D D a W.W.W.a = B #.Z D #.#.D %.D D Z - D D - % t   o o u #.#.#.#.D 0 E.W.W.h : B  .B D D %.D D D D ",
"D = - - % > o o o r B Z D D #.#.s W.W.W.R.5 - - = B B Z D D #.D Z - - - = = y   o o < D D D #.D  .h R.W.W.g ; - = - Z Z D D D D ",
"D B B Z Z < o o o r B Z Z Z D D  .l W.W.W.R.w - = = B Z Z D D D D B - Z Z Z u o o o : B Z Z D D  .9 W.W.W.W.z ; = - B B D D D D ",
"Z #.D D #.-.o o o t Z Z Z Z Z D Z ;.l W.W.W.E.-.B B B Z Z Z Z D Z D #.D #.#.u   o O : Z Z Z D D Z #.s W.W.W.W.d B B Z Z Z Z D D ",
"Z D B - B : O o o r - B B B Z Z B D 7 R.W.W.R.h 0 - B B B B Z D Z D B - B Z t   o o : N B B Z Z ; D Z u W.W.W.R.9 - - B B B Z D ",
"Z Z Z Z B : O   o r - B B B B B Z Z Z 7 R.W.W.W.k } B B B B B B Z Z Z Z B - r o o o : B B B B B D Z Z Z z W.W.W.R.9 - - Z Z - Z ",
"B B B B A ..O   o u  .D Z B B - B Z B Z s R.W./.W.z | D Z B - - Z B - B Z #.i o o o q D Z B - B - Z - ; | l W.W.W.R.e D Z - - - ",
"B - - - Z ..O o   u %.#.D Z Z Z - - - - Z s W.W.W.W.s %.D D Z D B - - - Z #.i o o o -.#.D D Z Z - - - - Z ,.h W.W.W.R.;.#.D D Z ",
"Z Z B - N : X o o y V Z B B Z D Z Z - - - Z d W.W.W.W.a B B Z Z Z Z B - B Z i o o o < Z B B Z Z Z Z Z - ; Z q E./.W.W.E.0 - Z Z ",
"D D D Z B 0 O o o . ; Z B B B Z D #.D Z B Z ; u W.W.W.R.9 ; B Z D D D Z N B 2 o o o , B B B B Z D #.D Z Z - - < R.W.W.W.l 0 - Z ",
"D D D D Z } O o o y #.#.D Z B B D D D D D Z Z | l W.W.W.R.-.B B D D D D #.Z i o o o 7 #.D Z B B D D D D D D Z D 9 R.W.W.W.d Z - ",
"Z B B B Z ; O   o y | D D Z - - Z B - B Z B B Z 0 Q.W.W.W.s - = Z B B Z Z B 4 o o o 6 #.D Z - = Z - - Z Z - Z - ; s W.W./.E.; - ",
"Z = % = - > X   o . Z Z Z Z Z B Z = % = - = % = | z W.W.R.w B Z Z % % = % & 1 o o o 6 Z Z Z Z Z Z = = = = = = = D w W.R./.k Z ; ",
"B #.#.4 X X o   o f | Z Z D D Z Z #.#.D Z Z B Z q R.W.W.E. .D Z B #.#.< y X O o o o 6 Z Z D D Z B #.#.Z D Z B Z ; s W.W.W.a D Z ",
"Z B > o o o o   o X ; - - Z B - Z - - - #.%.D - 5 W.W.W.d B B - B B - r o o o o     5 - - B B - Z B - - D %.D - = h W.W.R.0 - - ",
"Z - > o     Y.    y B Z Z Z Z B Z - B Z D D D D 6 W.R.R.w Z Z B Z - B t             w Z Z Z Z B B B B A D D D D ; l W.W.z Z Z - ",
"Z C o.] + @ @ @ j >.=.=.=.=.@.@.O.S @.@.C C O.@.o.9.[.9.+.@.=.@.O.S +.>.j @ @ @ + 9.+.=.=.=.@.@.O.S @.@.C C o.@.O.>.[.8.>.=.&.D ",
"4.a.s.s.f.m.n.m.m.l.l.m.l.l.m.l.m.l.l.l.l.l.l.m.m.m.m.m.l.m.l.l.m.l.l.l.m.b.b.b.m.m.l.l.m.l.l.m.m.l.l.l.l.l.l.l.l.l.m.M.m.m.S.6.",
"s.d.d.d.l.B.M.M.M.M.B.B.M.M.M.B.M.M.B.B.M.M.B.M.m.M.M.M.M.M.B.B.B.M.M.M.M.M.M.M.B.M.M.M.B.B.B.M.M.M.M.M.M.B.M.M.M.M.M.l.M.M.l.l.",
"s.d.d.d.l.B.M.M.M.M.M.M.B.M.M.B.M.M.M.M.M.M.M.M.M.M.M.M.M.M.M.M.M.M.M.B.B.M.M.M.M.M.M.M.M.M.M.M.M.M.M.M.M.M.B.M.M.B.B.B.B.B.B.l.",
"[ s.d.d.j.M.M.M.B.M.M.M.M.M.M.M.M.B.M.M.B.M.B.M.M.B.M.M.M.B.M.M.B.M.M.M.M.M.M.M.M.M.B.M.M.B.B.M.M.M.B.M.M.M.M.M.M.M.B.l.B.B.S.4."
};
